<svg xmlns="http://www.w3.org/2000/svg" viewBox="0 0 96 96"><rect width="96" height="96" rx="22" fill="#F7F9FC"/><g fill="none" stroke="#0B2545" stroke-width="5" stroke-linecap="round" stroke-linejoin="round"><path d="M24 27c0-7 5-12 12-12s12 5 12 12c0 10-12 20-12 20S24 37 24 27Z" fill="#F5B400"/><circle cx="36" cy="27" r="4" fill="#1565D8" stroke="#1565D8"/><path d="M36 47v12c0 8 7 14 15 14h9"/><circle cx="68" cy="60" r="17" fill="#fff"/><path d="M68 49v11l8 5M84 54a17 17 0 0 0-28-6"/><path d="m55 42 1 8 8-1" stroke="#1565D8"/></g></svg>