<svg xmlns="http://www.w3.org/2000/svg" viewBox="0 0 96 96" role="img" aria-labelledby="t d"><title id="t">Mantenimiento</title><desc id="d">Engranaje y llave sobre fondo amarillo</desc><rect x="4" y="4" width="88" height="88" rx="22" fill="#F5B400"/><g fill="none" stroke="#0B2545" stroke-width="7" stroke-linecap="round" stroke-linejoin="round"><path d="M31 26l5-7 8 3 4-9h10l3 9 9-2 5 8-6 7 7 7-4 9-9-1-3 9H49l-3-9-9 2-5-8 6-7-7-7Z"/><circle cx="54" cy="39" r="12" fill="#fff" stroke="#0B2545"/><path d="M68 30c-5-2-10-1-13 3-3 4-3 9-1 13L34 66a8 8 0 1 0 11 11l20-20c4 2 9 2 13-1 4-3 5-8 3-13l-8 8-8-8 8-8Z" fill="#1565D8"/></g><path d="M14 42h15M11 52h18M16 62h13" stroke="#fff" stroke-width="5" stroke-linecap="round"/></svg>