<?xml version="1.0" encoding="UTF-8"?>
<!-- Generator: visioncortex VTracer 0.6.12 -->
<svg version="1.1" xmlns="http://www.w3.org/2000/svg" width="212" height="181">
<path d="M0 0 C2 2 2 2 2 5 C2.666 5.075 3.333 5.15 4.02 5.227 C18.396 7.277 28.994 15.649 38.137 26.547 C39.913 28.967 41.489 31.407 43 34 C43.471 34.804 43.941 35.609 44.426 36.438 C53.073 53.171 54.627 80.112 49 98 C47 100 47 100 44.375 100.312 C37.596 101.693 32.577 105.994 28 111 C31.081 110.385 33.213 109.372 35.812 107.625 C44.616 102.063 52.181 100.656 62.523 102.434 C70.687 104.739 76.966 109.87 81.438 117 C85.952 125.315 87.488 133.532 85.348 142.836 C82.248 152.333 77.749 158.925 68.75 163.5 C60.848 167.11 52.946 168.695 44.355 166.246 C42.14 165.284 40.081 164.223 38 163 C36.948 162.402 35.896 161.804 34.812 161.188 C27.821 155.75 24.013 149.689 22 141 C21.716 137.301 21.742 133.699 22 130 C21.113 130.433 20.226 130.866 19.312 131.312 C-4.163 141.279 -40.381 139.866 -64.082 130.824 C-75.855 125.459 -85.17 117.146 -90 105 C-96.739 83.34 -94.782 55.488 -84.656 35.324 C-77.384 22.335 -65.454 10.546 -51 6 C-48.304 5.473 -45.748 5.2 -43 5 C-42.774 4.202 -42.549 3.404 -42.316 2.582 C-41 -0 -41 -0 -38.777 -0.926 C-26.229 -2.635 -12.325 -3.509 0 0 Z " fill="#011B41" transform="translate(120,8)"/>
<path d="M0 0 C5.068 0.719 7.418 4.094 10.617 7.816 C24.554 26.436 26.095 49.513 23.613 72.059 C22.496 79.504 22.496 79.504 20 82 C19.134 82.103 18.267 82.206 17.375 82.312 C10.596 83.693 5.577 87.994 1 93 C4.081 92.385 6.213 91.372 8.812 89.625 C17.616 84.063 25.181 82.656 35.523 84.434 C43.687 86.739 49.966 91.87 54.438 99 C58.952 107.315 60.488 115.532 58.348 124.836 C55.248 134.333 50.749 140.925 41.75 145.5 C33.848 149.11 25.946 150.695 17.355 148.246 C15.14 147.284 13.081 146.223 11 145 C9.948 144.402 8.896 143.804 7.812 143.188 C0.821 137.75 -2.987 131.689 -5 123 C-5.284 119.301 -5.258 115.699 -5 112 C-5.577 112.351 -6.155 112.701 -6.75 113.062 C-9.358 114.149 -10.394 113.931 -13 113 C-12.602 112.236 -12.203 111.471 -11.793 110.684 C-8.622 104.273 -6.635 98.906 -5.625 91.875 C-4.519 85.411 -4.519 85.411 -2.184 83.562 C-0.062 82.875 -0.062 82.875 2.066 82.449 C4 82 4 82 6.375 79.688 C10.563 72.761 10.366 65.981 10.375 58.125 C10.399 56.979 10.424 55.833 10.449 54.652 C10.474 47.601 9.828 42.971 6 37 C1.812 32.812 -2.695 30.47 -8 28 C-7.815 17.562 -5.849 8.774 0 0 Z " fill="#13833D" transform="translate(147,26)"/>
<path d="M0 0 C2 2 2 2 2 5 C2.701 5.098 3.403 5.196 4.125 5.297 C10.488 6.3 15.394 7.827 21 11 C20.64 14.693 20.009 16.985 18.09 20.203 C15.821 24.055 14.778 27.85 13.812 32.188 C13.73 32.537 13.73 32.537 13.314 34.303 C12.869 36.2 12.434 38.1 12 40 C11.67 41.32 11.34 42.64 11 44 C-10.12 44.33 -31.24 44.66 -53 45 C-53.66 40.71 -54.32 36.42 -55 32 C-56.3 26.919 -57.501 22.605 -60.188 18.125 C-62 15 -62 15 -62 11 C-55.627 7.825 -50.151 5.405 -43 5 C-42.774 4.202 -42.549 3.404 -42.316 2.582 C-41 0 -41 0 -38.777 -0.926 C-26.229 -2.635 -12.325 -3.509 0 0 Z " fill="#0074E7" transform="translate(120,8)"/>
<path d="M0 0 C23.76 0 47.52 0 72 0 C70.85 14.95 70.85 14.95 67 21.688 C66.631 22.375 66.263 23.063 65.883 23.771 C64.94 25.524 63.972 27.263 63 29 C62.67 29.66 62.34 30.32 62 31 C51.812 34.396 39.175 33.319 28.532 33.058 C26.868 33.02 25.203 32.998 23.538 32.993 C18.424 32.95 13.86 32.675 9 31 C5.574 27.421 4.312 23.719 3 19 C2.67 17.939 2.34 16.878 2 15.785 C0.416 10.177 0 5.971 0 0 Z " fill="#FBFBFD" transform="translate(63,112)"/>
<path d="M0 0 C2.4 0.367 3.649 0.561 5.195 2.496 C9.338 11.147 10.365 19.474 10 29 C8.969 29.413 7.938 29.825 6.875 30.25 C0.427 33.084 -3.597 35.953 -6.948 42.2 C-9.004 47.672 -8.675 53.29 -8.562 59.062 C-8.573 60.29 -8.584 61.518 -8.596 62.783 C-8.538 69.896 -8.131 75.097 -4 81 C-1.563 82.312 -1.563 82.312 1 83 C3.664 84.145 3.664 84.145 6 86 C7.831 90.597 8.688 95.196 9.579 100.045 C10.346 103.609 11.802 106.858 13.266 110.18 C14 112 14 112 14 114 C2.954 113.128 -5.817 105.916 -13 98 C-24.901 81.325 -23.683 56.3 -20.754 36.859 C-17.863 22.062 -10.258 10.714 0 0 Z " fill="#F6F7F9" transform="translate(49,26)"/>
<path d="M0 0 C4.78 3.611 8.824 8.064 11.156 13.629 C11.281 16.879 11.281 16.879 11.156 19.629 C9.506 19.629 7.856 19.629 6.156 19.629 C5.826 20.949 5.496 22.269 5.156 23.629 C4.568 23.557 4.568 23.557 1.594 23.191 C-2.154 23.198 -3.769 23.985 -6.406 26.629 C-7.575 27.942 -8.72 29.277 -9.844 30.629 C-11.071 32.047 -12.3 33.464 -13.531 34.879 C-14.071 35.523 -14.611 36.168 -15.168 36.832 C-18.126 40.004 -20.633 41.708 -24.844 42.629 C-26.192 43.265 -27.53 43.925 -28.844 44.629 C-28.844 45.289 -28.844 45.949 -28.844 46.629 C-33.165 45.892 -34.791 43.963 -37.449 40.633 C-42.371 33.56 -42.727 26.07 -41.844 17.629 C-39.814 8.553 -34.438 2.629 -26.781 -2.371 C-18.212 -5.358 -7.778 -4.55 0 0 Z " fill="#2DB650" transform="translate(188.84375,118.37109375)"/>
<path d="M0 0 C5.068 0.719 7.418 4.094 10.617 7.816 C24.554 26.436 26.095 49.513 23.613 72.059 C22.496 79.504 22.496 79.504 20 82 C19.134 82.103 18.267 82.206 17.375 82.312 C10.679 83.677 3.931 88.355 0 94 C-0.41 96.321 -0.731 98.658 -1 101 C-4.8 111.2 -4.8 111.2 -9 114 C-11.187 113.625 -11.187 113.625 -13 113 C-12.602 112.236 -12.203 111.471 -11.793 110.684 C-8.622 104.273 -6.635 98.906 -5.625 91.875 C-4.519 85.411 -4.519 85.411 -2.184 83.562 C-0.062 82.875 -0.062 82.875 2.066 82.449 C4 82 4 82 6.375 79.688 C10.563 72.761 10.366 65.981 10.375 58.125 C10.399 56.979 10.424 55.833 10.449 54.652 C10.474 47.601 9.828 42.971 6 37 C1.812 32.812 -2.695 30.47 -8 28 C-7.815 17.562 -5.849 8.774 0 0 Z " fill="#FAFAFA" transform="translate(147,26)"/>
<path d="M0 0 C0.242 1.002 0.485 2.003 0.734 3.035 C4.897 19.766 4.897 19.766 10.984 24.148 C15.666 26.708 20.212 26.553 25.438 26.438 C25.889 26.441 25.889 26.441 28.174 26.459 C34.102 26.403 38.634 25.569 44 23 C49.455 17.033 51.517 8.523 54 1 C58.08 0.813 60.788 1.021 64.375 3 C65.063 3.371 65.752 3.742 66.461 4.125 C66.715 4.269 66.715 4.269 68 5 C67.64 8.693 67.009 10.985 65.09 14.203 C62.821 18.055 61.778 21.85 60.812 26.188 C60.648 26.886 60.484 27.584 60.314 28.303 C59.869 30.2 59.434 32.1 59 34 C58.67 35.32 58.34 36.64 58 38 C36.88 38.33 15.76 38.66 -6 39 C-6.66 34.71 -7.32 30.42 -8 26 C-9.3 20.919 -10.501 16.605 -13.188 12.125 C-15 9 -15 9 -15 5 C-13.254 4.157 -11.503 3.326 -9.75 2.5 C-8.775 2.036 -7.801 1.572 -6.797 1.094 C-4 0 -4 0 0 0 Z " fill="#F9FAFC" transform="translate(73,14)"/>
<path d="M0 0 C15.18 0 30.36 0 46 0 C46 1.65 46 3.3 46 5 C44.35 5.33 42.7 5.66 41 6 C41.66 6.66 42.32 7.32 43 8 C35.74 8.33 28.48 8.66 21 9 C22.149 18.193 22.149 18.193 24.5 20.312 C30.364 24.863 38.867 25.085 46 26 C46 26.99 46 27.98 46 29 C48.31 29 50.62 29 53 29 C53.165 29.33 53.165 29.33 54 31 C48.877 31.025 43.754 31.043 38.631 31.055 C36.891 31.06 35.152 31.067 33.412 31.075 C30.899 31.088 28.387 31.093 25.875 31.098 C25.491 31.1 25.491 31.1 23.548 31.113 C18.612 31.114 13.869 30.851 9 30 C1.775 22.434 0 9.965 0 0 Z " fill="#F7F9FA" transform="translate(63,112)"/>
<path d="M0 0 C-0.162 0.986 -0.325 1.973 -0.492 2.989 C-1.069 7.049 -1.144 11.077 -1.133 15.172 C-1.134 15.935 -1.135 16.698 -1.136 17.484 C-1.136 19.091 -1.135 20.698 -1.13 22.305 C-1.125 24.729 -1.13 27.154 -1.137 29.578 C-1.14 37.771 -0.99 45.853 0 54 C-2.687 54.312 -2.687 54.312 -6 54 C-8.5 51.938 -8.5 51.938 -11 49 C-11.519 48.434 -12.039 47.868 -12.574 47.285 C-18.404 40.835 -19.344 35.807 -19.312 27.25 C-19.329 26.394 -19.345 25.538 -19.361 24.656 C-19.367 17.459 -18.091 11.207 -14.125 5.125 C-9.573 0.573 -6.451 -0.379 0 0 Z " fill="#0D5EBA" transform="translate(25,58)"/>
<path d="M0 0 C0.33 0 0.66 0 1 0 C1.538 11.353 1.002 19.184 -6.188 28.312 C-11.6 34.169 -18.818 36.639 -26.625 37.312 C-31.791 37.264 -36.478 35.415 -41 33 C-41.33 32.34 -41.66 31.68 -42 31 C-41.34 31 -40.68 31 -40 31 C-40 30.34 -40 29.68 -40 29 C-37.259 26.96 -34.737 25.265 -31.511 24.106 C-28.705 22.87 -27.464 21.641 -25.512 19.305 C-24.887 18.589 -24.263 17.874 -23.619 17.137 C-22.332 15.63 -21.056 14.114 -19.791 12.59 C-15.068 7.232 -15.068 7.232 -11.737 6.509 C-9.52 6.508 -9.52 6.508 -6 7 C-5.67 6.01 -5.34 5.02 -5 4 C-3.35 4 -1.7 4 0 4 C0 2.68 0 1.36 0 0 Z " fill="#2CB350" transform="translate(200,134)"/>
<path d="M0 0 C6.033 0.74 9.421 6.575 13 11 C15.368 14.208 17.088 16.68 16.812 20.812 C16 23 16 23 15 25 C16.32 25.33 17.64 25.66 19 26 C20.076 31.274 20.066 34.983 18 40 C15.937 41.125 15.937 41.125 14 42 C13.25 44.625 13.25 44.625 13 47 C12.67 46.34 12.34 45.68 12 45 C11.34 45 10.68 45 10 45 C9.781 44.481 9.562 43.961 9.336 43.426 C5.604 35.218 -0.03 31.71 -8 28 C-7.815 17.562 -5.849 8.774 0 0 Z " fill="#F9FAFB" transform="translate(147,26)"/>
<path d="M0 0 C7.552 0.777 7.552 0.777 10.75 3.625 C11.302 4.092 11.853 4.558 12.422 5.039 C17.6 11.474 17.491 18.061 17.438 26 C17.447 26.527 17.447 26.527 17.498 29.195 C17.494 35.722 16.82 39.672 13 45 C12.443 45.784 11.886 46.567 11.312 47.375 C7.819 49.83 4.185 49.821 0 50 C0.072 49.138 0.144 48.275 0.219 47.387 C1.423 31.541 1.223 15.839 0 0 Z " fill="#FAA804" transform="translate(174,57)"/>
<path d="M0 0 C7.716 9.651 10.384 20.908 10 33 C10.397 32.964 10.397 32.964 12.407 32.785 C20.1 32.138 27.708 31.864 35.426 31.902 C35.983 31.903 35.983 31.903 38.8 31.907 C42.304 31.912 45.808 31.925 49.312 31.938 C51.71 31.943 54.108 31.947 56.506 31.951 C62.337 31.962 68.169 31.979 74 32 C74.063 31.389 74.126 30.779 74.191 30.15 C74.276 29.345 74.362 28.54 74.45 27.711 C74.534 26.914 74.617 26.118 74.703 25.298 C75.864 16.303 79.663 7.873 84 0 C90.875 3.75 90.875 3.75 92 6 C91.34 6 90.68 6 90 6 C89.711 6.732 89.423 7.464 89.125 8.219 C88.446 9.898 87.744 11.568 87 13.219 C84.026 20.002 82.873 26.671 82 34 C83.32 34.66 84.64 35.32 86 36 C85.505 36.165 85.505 36.165 83 37 C83 36.34 83 35.68 83 35 C82.505 35.165 82.505 35.165 80 36 C80 35.34 80 34.68 80 34 C62.51 34 45.02 34 27 34 C27.66 34.66 28.32 35.32 29 36 C26.36 36.66 23.72 37.32 21 38 C21 37.34 21 36.68 21 36 C19.907 36.206 18.814 36.413 17.688 36.625 C12.278 37.334 7.273 36.173 2 35 C1.902 33.961 1.804 32.922 1.703 31.852 C0.676 21.933 -0.637 13.049 -7 5 C-4.69 3.35 -2.38 1.7 0 0 Z " fill="#365174" transform="translate(57,20)"/>
<path d="M0 0 C30.03 0 60.06 0 91 0 C89.877 12.352 89.877 12.352 87.562 17.812 C85.886 21.842 84.336 25.843 83 30 C79.7 30.33 76.4 30.66 73 31 C73.554 29.924 74.109 28.847 74.68 27.738 C75.412 26.263 76.144 24.788 76.875 23.312 C77.24 22.611 77.605 21.909 77.98 21.186 C81.428 14.134 81.697 9.47 83 1 C59.24 1 35.48 1 11 1 C14.394 17.971 14.394 17.971 18 26 C18.673 27.664 19.341 29.33 20 31 C16.7 30.67 13.4 30.34 10 30 C9.67 28.68 9.34 27.36 9 26 C8.368 24.287 7.721 22.579 7.062 20.875 C4.655 14.336 3 7.988 3 1 C2.01 0.67 1.02 0.34 0 0 Z " fill="#0861CB" transform="translate(52,111)"/>
<path d="M0 0 C6.231 1.216 9.492 4.982 13 10 C15.76 15.816 15.33 21.491 15.312 27.812 C15.329 28.963 15.345 30.113 15.361 31.299 C15.365 37.929 14.81 42.973 12 49 C10.875 45.25 10.875 45.25 12 43 C8.37 42.67 4.74 42.34 1 42 C1 41.34 1 40.68 1 40 C-0.98 40 -2.96 40 -5 40 C-3.68 39.34 -2.36 38.68 -1 38 C-0.543 29.014 -0.543 29.014 -4 25 C-9.232 21.204 -12.58 20.369 -19 21 C-21.312 22.062 -21.312 22.062 -23 23 C-23.99 22.67 -24.98 22.34 -26 22 C-25.67 21.01 -25.34 20.02 -25 19 C-24.216 18.856 -23.433 18.711 -22.625 18.562 C-20 18 -20 18 -18 17 C-11.592 16.457 -8.253 17.248 -3 21 C-2.67 21.99 -2.34 22.98 -2 24 C3.316 24.506 5.825 23.247 10 20 C11.875 18.25 11.875 18.25 13 17 C12.196 16.752 11.391 16.505 10.562 16.25 C8 15 8 15 7.188 13.062 C6.943 10.372 7 7.701 7 5 C6.608 4.959 6.608 4.959 4.625 4.75 C2 4 2 4 0.688 1.938 C0.461 1.298 0.234 0.659 0 0 Z " fill="#021F49" transform="translate(143,56)"/>
<path d="M0 0 C0.647 0.024 0.647 0.024 3.92 0.143 C4.263 0.155 4.263 0.155 6 0.214 C8.202 0.291 10.402 0.375 12.603 0.459 C14.092 0.512 15.581 0.565 17.07 0.617 C20.727 0.747 24.384 0.883 28.041 1.022 C28.209 7.622 28.209 7.622 25.291 10.772 C24.78 11.344 24.27 11.916 23.744 12.506 C19.098 16.641 14.352 16.627 8.322 16.526 C3.876 15.843 1.531 14.301 -1.565 11.108 C-3.855 7.682 -4.03 5.115 -3.959 1.022 C-2.959 0.022 -2.959 0.022 0 0 Z " fill="#06214C" transform="translate(86.959228515625,119.978271484375)"/>
<path d="M0 0 C0.592 0.223 1.185 0.445 1.795 0.674 C2.631 2.788 2.631 2.788 2.795 5.674 C1.073 7.996 -0.544 9.852 -2.58 11.862 C-3.694 13.003 -4.808 14.145 -5.92 15.288 C-6.198 15.57 -6.198 15.57 -7.607 17.001 C-9.084 18.548 -10.47 20.132 -11.834 21.78 C-12.596 22.694 -13.357 23.608 -14.142 24.549 C-14.811 25.372 -15.48 26.194 -16.17 27.042 C-18.205 28.674 -18.205 28.674 -20.736 28.635 C-24.883 27.021 -27.283 23.927 -30.205 20.674 C-31.03 19.787 -31.855 18.901 -32.705 17.987 C-34.205 15.674 -34.205 15.674 -34.08 13.487 C-33.205 11.674 -33.205 11.674 -31.205 9.674 C-27.904 10.003 -26.22 11.272 -23.955 13.612 C-23.434 14.136 -22.913 14.661 -22.377 15.202 C-21.205 16.674 -21.205 16.674 -21.205 18.674 C-18.356 15.853 -15.554 12.998 -12.795 10.088 C-11.577 8.825 -10.36 7.562 -9.142 6.299 C-8.837 5.973 -8.837 5.973 -7.289 4.319 C-6.693 3.707 -6.096 3.094 -5.482 2.463 C-4.948 1.903 -4.415 1.344 -3.865 0.767 C-2.205 -0.326 -2.205 -0.326 0 0 Z " fill="#F5FBF6" transform="translate(189.204833984375,129.32568359375)"/>
<path d="M0 0 C0 15.18 0 30.36 0 46 C-4.581 43.709 -6.704 41.43 -9.098 36.941 C-10.398 32.701 -10.329 28.66 -10.312 24.25 C-10.329 23.394 -10.345 22.538 -10.361 21.656 C-10.367 14.341 -9.03 8.108 -5 1.938 C-3 0 -3 0 0 0 Z " fill="#CE7F0D" transform="translate(16,61)"/>
<path d="M0 0 C0.99 0 1.98 0 3 0 C3.772 11.083 1.361 20.321 -5.797 28.988 C-13.402 35.933 -22.636 38.363 -32.637 38.285 C-37.402 37.881 -40.915 36.399 -45 34 C-46.052 33.402 -47.104 32.804 -48.188 32.188 C-51.552 29.571 -54.885 26.752 -57 23 C-56.66 20.781 -56.66 20.781 -56 19 C-52.262 19.544 -51.007 20.86 -48.75 23.812 C-44.575 28.833 -40.093 30.969 -34 33 C-25.547 33.755 -17.584 31.484 -11 26 C-8.706 23.842 -6.874 21.53 -5 19 C-4.01 18.67 -3.02 18.34 -2 18 C-1.97 17.392 -1.97 17.392 -1.816 14.316 C-1.732 12.732 -1.647 11.147 -1.562 9.562 C-1.523 8.76 -1.484 7.958 -1.443 7.131 C-1.113 1.113 -1.113 1.113 0 0 Z " fill="#0F7B3A" transform="translate(203,137)"/>
<path d="M0 0 C1.32 0.33 2.64 0.66 4 1 C3.01 1 2.02 1 1 1 C0.883 1.691 0.765 2.382 0.645 3.094 C-0.081 6.364 -1.13 9.366 -2.312 12.5 C-2.721 13.603 -3.13 14.707 -3.551 15.844 C-5.719 20.567 -7.747 23.708 -12.594 25.781 C-17.523 27.397 -22.35 27.515 -27.5 27.5 C-28.398 27.528 -29.297 27.557 -30.223 27.586 C-37.791 27.608 -42.456 25.212 -48 20.188 C-49.562 16.772 -49.186 13.729 -49 10 C-47.68 10 -46.36 10 -45 10 C-44.746 10.543 -44.492 11.085 -44.23 11.645 C-43.886 12.36 -43.542 13.075 -43.188 13.812 C-42.851 14.52 -42.515 15.228 -42.168 15.957 C-40.932 18.119 -39.939 19.438 -38 21 C-35.719 21.388 -35.719 21.388 -33.07 21.398 C-32.11 21.402 -31.15 21.406 -30.16 21.41 C-29.659 21.404 -29.659 21.404 -27.125 21.375 C-26.628 21.381 -26.628 21.381 -24.113 21.41 C-14.461 21.371 -14.461 21.371 -11 18 C-10.723 15.879 -10.723 15.879 -11.062 13.562 C-11.211 11.164 -11.211 11.164 -11 9 C-7.883 6.16 -6.238 5 -2 5 C-2 4.34 -2 3.68 -2 3 C-1.34 3 -0.68 3 0 3 C0 2.01 0 1.02 0 0 Z " fill="#0365CC" transform="translate(126,14)"/>
<path d="M0 0 C6.75 0.75 6.75 0.75 9 3 C9.241 4.987 9.241 4.987 9.227 7.45 C9.227 7.91 9.227 7.91 9.227 10.24 C9.216 11.236 9.206 12.232 9.195 13.258 C9.192 14.276 9.19 15.294 9.187 16.343 C9.176 19.604 9.15 22.864 9.125 26.125 C9.115 28.332 9.106 30.539 9.098 32.746 C9.076 38.164 9.041 43.582 9 49 C7.515 49.165 7.515 49.165 0 50 C0.072 49.138 0.144 48.275 0.219 47.387 C1.423 31.541 1.223 15.839 0 0 Z " fill="#2769AA" transform="translate(174,57)"/>
<path d="M0 0 C4.773 2.329 9.111 4.841 11 10 C11.299 12.731 11.136 15.238 11 18 C10 19 10 19 7.438 19.062 C6.633 19.042 5.829 19.021 5 19 C4.734 18.362 4.469 17.724 4.195 17.066 C3.842 16.24 3.489 15.414 3.125 14.562 C2.777 13.739 2.429 12.915 2.07 12.066 C1 10 1 10 -1 9 C-4 8.812 -4 8.812 -7 9 C-9.683 11.683 -10.015 14.387 -11 18 C-12 19 -12 19 -14.5 19.125 C-17 19 -17 19 -18 18 C-18.273 13.555 -18.077 9.509 -15.441 5.816 C-10.707 1.082 -6.923 -1.258 0 0 Z " fill="#35B0F8" transform="translate(132,76)"/>
<path d="M0 0 C7.716 9.651 10.384 20.908 10 33 C11.204 32.965 12.408 32.93 13.648 32.895 C15.224 32.866 16.799 32.839 18.375 32.812 C18.772 32.8 18.772 32.8 20.781 32.736 C22.856 32.71 24.931 32.845 27 33 C27.66 33.99 28.32 34.98 29 36 C26.36 36.66 23.72 37.32 21 38 C21 37.34 21 36.68 21 36 C19.907 36.206 18.814 36.413 17.688 36.625 C12.278 37.334 7.273 36.173 2 35 C1.902 33.961 1.804 32.922 1.703 31.852 C0.676 21.933 -0.637 13.049 -7 5 C-4.69 3.35 -2.38 1.7 0 0 Z " fill="#0A2954" transform="translate(57,20)"/>
<path d="M0 0 C4.433 2.137 7.125 4.417 9 9 C9.282 11.76 9.186 14.207 9 17 C8 18 8 18 5.438 18.062 C4.633 18.042 3.829 18.021 3 18 C2.909 17.723 2.909 17.723 2.449 16.32 C2.198 15.596 1.946 14.871 1.688 14.125 C1.444 13.406 1.2 12.686 0.949 11.945 C0 10 0 10 -3 8 C-5.78 7.653 -7.328 7.552 -9.688 9.125 C-11.417 11.595 -12.168 14.119 -13 17 C-15.375 17.625 -15.375 17.625 -18 18 C-20 16 -20 16 -20.375 13.25 C-19.791 8.186 -17.199 5.38 -13.938 1.625 C-9.393 -0.889 -5.073 -0.738 0 0 Z " fill="#30ACF4" transform="translate(75,77)"/>
<path d="M0 0 C0.33 0.66 0.66 1.32 1 2 C5.034 4.136 8.493 4.177 13 4 C12.375 5.938 12.375 5.938 11 8 C10.134 8.144 9.267 8.289 8.375 8.438 C1.961 9.506 -3.477 13.748 -7.898 18.418 C-9.711 21.021 -9.643 23.891 -10 27 C-13.8 37.2 -13.8 37.2 -18 40 C-20.188 39.625 -20.188 39.625 -22 39 C-21.602 38.236 -21.203 37.471 -20.793 36.684 C-17.622 30.273 -15.635 24.906 -14.625 17.875 C-13.519 11.411 -13.519 11.411 -11.184 9.562 C-9.062 8.875 -9.062 8.875 -6.938 8.461 C-3.8 7.714 -2.642 5.628 -1 3 C-0.67 2.01 -0.34 1.02 0 0 Z " fill="#E9F2F6" transform="translate(156,100)"/>
<path d="M0 0 C3.681 1.159 5.168 1.922 7.375 5.062 C8.604 8.831 8.555 10.569 7.188 14.312 C4.586 18.26 4.586 18.26 1.375 19.062 C-2.752 18.989 -4.884 18.689 -8.062 16 C-10.076 12.214 -10.73 9.255 -9.625 5.062 C-6.496 1.323 -4.915 0.085 0 0 Z " fill="#FCAE04" transform="translate(179.625,5.9375)"/>
<path d="M0 0 C2.461 2.137 3.753 3.731 4.383 6.969 C4.572 10.343 4.266 12.585 2.438 15.438 C-0.884 17.567 -3.046 18.068 -7 18 C-10.429 15.841 -12.481 14.298 -14 10.5 C-14 6.718 -12.955 4.162 -10.562 1.25 C-7.065 -1.548 -4.096 -1.17 0 0 Z " fill="#D67A0E" transform="translate(25,7)"/>
<path d="M0 0 C1.65 0 3.3 0 5 0 C5 0.99 5 1.98 5 3 C5.99 3.33 6.98 3.66 8 4 C7.651 4.531 7.301 5.062 6.941 5.609 C6.486 6.316 6.031 7.022 5.562 7.75 C5.11 8.446 4.658 9.142 4.191 9.859 C0.376 16.715 1.136 26.421 3 33.812 C3.33 34.864 3.66 35.916 4 37 C3.175 37.165 3.175 37.165 -1 38 C-4.421 29.479 -6.791 20.459 -3.125 11.688 C-2.938 11.289 -2.938 11.289 -1.992 9.27 C-0.634 6.162 -0.292 3.361 0 0 Z " fill="#127F3E" transform="translate(146,120)"/>
<path d="M0 0 C0.33 0 0.66 0 1 0 C1.263 4.332 0.292 7.88 -1 12 C2.089 14.059 2.709 14.239 6.188 14.125 C7.446 14.084 8.704 14.042 10 14 C9.67 14.99 9.34 15.98 9 17 C-6.861 22.287 -27.775 19.354 -44 17 C-44 16.67 -44 16.34 -44 16 C-29.48 16 -14.96 16 0 16 C-2.31 15.67 -4.62 15.34 -7 15 C-7 14.01 -7 13.02 -7 12 C-11.29 11.67 -15.58 11.34 -20 11 C-20 10.67 -20 10.34 -20 10 C-19.42 9.974 -18.84 9.948 -18.242 9.922 C-9.921 9.318 -5.761 5.925 0 0 Z " fill="#CAD0DA" transform="translate(116,126)"/>
<path d="M0 0 C0.99 0 1.98 0 3 0 C3 8.25 3 16.5 3 25 C-3 24 -3 24 -4.852 22.77 C-7.275 19.035 -6.458 14.261 -6 10 C-4.688 6.562 -4.688 6.562 -3 4 C-2.505 3.216 -2.01 2.432 -1.5 1.625 C-1.005 1.089 -0.51 0.553 0 0 Z " fill="#F9B510" transform="translate(13,61)"/>
<path d="M0 0 C0.366 1.414 0.717 2.831 1.062 4.25 C1.161 4.644 1.161 4.644 1.66 6.641 C2.015 9.104 1.769 10.656 1 13 C-2.333 13 -5.667 13 -9 13 C-8.67 15.64 -8.34 18.28 -8 21 C-9.632 18.552 -11.156 16.109 -12.625 13.562 C-13.071 12.801 -13.517 12.039 -13.977 11.254 C-15 9 -15 9 -15 5 C-13.254 4.157 -11.503 3.326 -9.75 2.5 C-8.775 2.036 -7.801 1.572 -6.797 1.094 C-4 0 -4 0 0 0 Z " fill="#F9FBFD" transform="translate(73,14)"/>
<path d="M0 0 C1.134 0.021 2.269 0.041 3.438 0.062 C3.305 0.911 3.172 1.759 3.035 2.633 C1.758 11.118 0.932 19.494 0.438 28.062 C-1.212 27.733 -2.863 27.403 -4.562 27.062 C-4.591 22.75 -4.609 18.438 -4.625 14.125 C-4.633 12.893 -4.642 11.662 -4.65 10.393 C-4.654 9.223 -4.657 8.053 -4.66 6.848 C-4.665 5.764 -4.671 4.68 -4.676 3.563 C-4.497 -0.38 -4.099 0.072 0 0 Z " fill="#037CED" transform="translate(21.5625,57.9375)"/>
<path d="M0 0 C0.33 0 0.66 0 1 0 C1.33 9.9 1.66 19.8 2 30 C3.217 27.566 3.32 25.582 3.562 22.875 C3.646 21.965 3.73 21.055 3.816 20.117 C3.847 19.768 3.847 19.768 4 18 C4.66 18.33 5.32 18.66 6 19 C6.391 21.063 6.507 23.094 6.656 25.188 C6.77 25.786 6.883 26.384 7 27 C7.66 27.33 8.32 27.66 9 28 C9 21.4 9 14.8 9 8 C9.33 8 9.66 8 10 8 C10.33 17.24 10.66 26.48 11 36 C9.35 36 7.7 36 6 36 C5.34 36.66 4.68 37.32 4 38 C3.01 38 2.02 38 1 38 C-1.337 29.874 -1.039 22.333 -0.625 13.938 C-0.567 12.581 -0.509 11.225 -0.453 9.869 C-0.313 6.579 -0.161 3.289 0 0 Z " fill="#FAFAFB" transform="translate(29,68)"/>
<path d="M0 0 C6.231 1.216 9.492 4.982 13 10 C14.858 13.862 15.237 16.908 15.195 21.176 C15.192 21.754 15.192 21.754 15.176 24.682 C15.159 25.88 15.142 27.078 15.125 28.312 C15.116 29.53 15.107 30.748 15.098 32.002 C15.074 35.002 15.041 38.001 15 41 C14.67 41 14.34 41 14 41 C14 37.04 14 33.08 14 29 C12.68 29 11.36 29 10 29 C10.256 31.343 10.593 33.678 11 36 C11.66 36.33 12.32 36.66 13 37 C13 37.66 13 38.32 13 39 C10.69 38.34 8.38 37.68 6 37 C6 34.03 6 31.06 6 28 C7.155 27.835 7.155 27.835 13 27 C13 23.7 13 20.4 13 17 C12.196 16.752 11.391 16.505 10.562 16.25 C8 15 8 15 7.188 13.062 C6.943 10.372 7 7.701 7 5 C6.216 4.918 5.433 4.835 4.625 4.75 C2 4 2 4 0.688 1.938 C0.461 1.298 0.234 0.659 0 0 Z " fill="#0E2344" transform="translate(143,56)"/>
<path d="M0 0 C8.955 8.955 7.179 28.073 7.19 39.741 C7.145 45.565 6.742 51.223 6 57 C5.67 57 5.34 57 5 57 C4.67 49.74 4.34 42.48 4 35 C3.34 35.99 2.68 36.98 2 38 C0.482 28.324 0.566 18.678 2 9 C2 8.01 2 7.02 2 6 C0.68 5.67 -0.64 5.34 -2 5 C-1.34 3.35 -0.68 1.7 0 0 Z " fill="#CBD0DA" transform="translate(164,46)"/>
<path d="M0 0 C0.99 0.165 0.99 0.165 6 1 C5.67 1.165 5.67 1.165 4 2 C4.33 6.29 4.66 10.58 5 15 C6.98 15 8.96 15 11 15 C13 20 15 25 17 30 C13.7 29.67 10.4 29.34 7 29 C6.67 27.68 6.34 26.36 6 25 C5.368 23.287 4.721 21.579 4.062 19.875 C1.655 13.336 0 6.988 0 0 Z " fill="#0D7BE8" transform="translate(55,112)"/>
<path d="M0 0 C2.31 0.33 4.62 0.66 7 1 C7 9.58 7 18.16 7 27 C5.35 27 3.7 27 2 27 C1.34 18.09 0.68 9.18 0 0 Z " fill="#0472E1" transform="translate(174,57)"/>
<path d="M0 0 C2.083 2.5 3.714 5.142 5.25 8 C5.428 8.33 5.428 8.33 6.328 10 C7.146 12.434 6.957 13.639 6 16 C5.34 16.33 4.68 16.66 4 17 C2.799 22.645 2.896 28.249 3 34 C2.67 34 2.34 34 2 34 C1.83 32.721 1.66 31.442 1.484 30.125 C1.24 28.417 0.995 26.708 0.75 25 C0.64 24.161 0.531 23.322 0.418 22.457 C-0.548 15.896 -2.201 9.799 -7 5 C-4.69 3.35 -2.38 1.7 0 0 Z " fill="#0B81ED" transform="translate(57,20)"/>
<path d="M0 0 C22.44 0 44.88 0 68 0 C68 0.33 68 0.66 68 1 C49.19 1 30.38 1 11 1 C11.66 4.63 12.32 8.26 13 12 C13 13.65 13 15.3 13 17 C11.35 16.67 9.7 16.34 8 16 C6.995 12.985 6.897 10.958 6.938 7.812 C6.947 6.911 6.956 6.01 6.965 5.082 C6.976 4.395 6.988 3.708 7 3 C4.69 2.34 2.38 1.68 0 1 C0 0.67 0 0.34 0 0 Z " fill="#2A4E85" transform="translate(52,111)"/>
<path d="M0 0 C0.451 3.079 0.5 5.21 -1.195 7.887 C-4.745 12.141 -7.397 14.747 -13.094 15.301 C-14.218 15.305 -15.342 15.309 -16.5 15.312 C-17.062 15.321 -17.062 15.321 -19.906 15.363 C-23.235 14.972 -24.579 14.249 -27 12 C-26.67 10.68 -26.34 9.36 -26 8 C-25.01 8.33 -24.02 8.66 -23 9 C-22.67 9.99 -22.34 10.98 -22 12 C-19.03 12 -16.06 12 -13 12 C-12.67 11.34 -12.34 10.68 -12 10 C-11.01 9.67 -10.02 9.34 -9 9 C-8.312 6.937 -8.312 6.937 -8 5 C-9.65 5 -11.3 5 -13 5 C-13 4.67 -13 4.34 -13 4 C-10.69 4 -8.38 4 -6 4 C-6 3.01 -6 2.02 -6 1 C-1.125 0 -1.125 0 0 0 Z " fill="#0E2448" transform="translate(115,121)"/>
<path d="M0 0 C0.33 0 0.66 0 1 0 C1.117 3.854 1.187 7.707 1.25 11.562 C1.267 12.106 1.267 12.106 1.352 14.854 C1.447 22.665 0.443 26.895 -4.625 32.938 C-6 34 -6 34 -8 34 C-8.403 27.648 -7.799 23.61 -4.875 17.945 C-4 16 -4 16 -4 13 C-3.01 12.67 -2.02 12.34 -1 12 C-0.67 8.04 -0.34 4.08 0 0 Z " fill="#DF800D" transform="translate(190,71)"/>
<path d="M0 0 C1.32 0.33 2.64 0.66 4 1 C3.01 1 2.02 1 1 1 C0.881 1.691 0.763 2.382 0.641 3.094 C-1.075 10.875 -3.524 19.004 -10 24 C-10.33 23.01 -10.66 22.02 -11 21 C-11.99 20.67 -12.98 20.34 -14 20 C-13.01 19.34 -12.02 18.68 -11 18 C-10.918 15.977 -10.918 15.977 -11.188 13.625 C-11.281 11.199 -11.281 11.199 -11 9 C-7.883 6.16 -6.238 5 -2 5 C-2 4.34 -2 3.68 -2 3 C-1.34 3 -0.68 3 0 3 C0 2.01 0 1.02 0 0 Z " fill="#006CDE" transform="translate(126,14)"/>
<path d="M0 0 C0.33 0.66 0.66 1.32 1 2 C5.034 4.136 8.493 4.177 13 4 C12.375 5.938 12.375 5.938 11 8 C10.134 8.144 9.267 8.289 8.375 8.438 C1.971 9.505 -3.123 13.885 -8 18 C-8 16.02 -8 14.04 -8 12 C-9.65 12 -11.3 12 -13 12 C-12.464 11.752 -11.928 11.505 -11.375 11.25 C-5.73 8.279 -2.472 6.042 0 0 Z " fill="#DFE0E4" transform="translate(156,100)"/>
<path d="M0 0 C0.66 0 1.32 0 2 0 C2 2.31 2 4.62 2 7 C1.34 7 0.68 7 0 7 C0.33 7.99 0.66 8.98 1 10 C2.32 9.67 3.64 9.34 5 9 C5.33 11.64 5.66 14.28 6 17 C6.971 16.826 7.941 16.652 8.941 16.473 C13.325 15.846 17.537 16.109 21.938 16.438 C22.327 16.464 22.327 16.464 24.299 16.596 C26.2 16.724 28.1 16.861 30 17 C30 17.33 30 17.66 30 18 C12.548 19.146 12.548 19.146 3.906 18.938 C2 19 2 19 1 20 C4.96 20 8.92 20 13 20 C13 20.33 13 20.66 13 21 C8.71 21 4.42 21 0 21 C-2.732 4.098 -2.732 4.098 0 0 Z " fill="#E7EDF2" transform="translate(67,32)"/>
<path d="M0 0 C5.61 0 11.22 0 17 0 C16.67 1.65 16.34 3.3 16 5 C15.01 5.66 14.02 6.32 13 7 C13 7.33 13 7.66 13 8 C11.375 8.054 9.75 8.093 8.125 8.125 C7.22 8.148 6.315 8.171 5.383 8.195 C3 8 3 8 1 6 C0.67 4.02 0.34 2.04 0 0 Z " fill="#00285F" transform="translate(90,126)"/>
<path d="M0 0 C0.33 0 0.66 0 1 0 C1.015 0.66 1.029 1.32 1.044 2 C1.119 5.022 1.216 8.042 1.312 11.062 C1.335 12.101 1.358 13.139 1.381 14.209 C1.592 20.268 2.365 24.561 5 30 C4.67 30.66 4.34 31.32 4 32 C3.093 31.794 2.185 31.588 1.25 31.375 C-2 31 -2 31 -4.312 31.625 C-6.618 33.504 -6.696 35.115 -7 38 C-6.34 38.33 -5.68 38.66 -5 39 C-5.66 39.66 -6.32 40.32 -7 41 C-9.944 34.344 -10.65 28.242 -11 21 C-9.254 24.216 -8.796 26.32 -9 30 C-6 29 -6 29 -4 27 C-1.375 27.375 -1.375 27.375 1 28 C0.837 27.456 0.674 26.913 0.506 26.353 C-0.08 23.626 -0.112 21.149 -0.098 18.359 C-0.094 17.289 -0.091 16.22 -0.088 15.117 C-0.08 14.006 -0.071 12.895 -0.062 11.75 C-0.06 11.187 -0.06 11.187 -0.049 8.336 C-0.037 5.557 -0.021 2.779 0 0 Z " fill="#DBDEE4" transform="translate(39,76)"/>
<path d="M0 0 C6.875 3.75 6.875 3.75 8 6 C7.34 6 6.68 6 6 6 C4.252 10.304 2.623 14.648 1 19 C0.67 19 0.34 19 0 19 C-0.33 17.35 -0.66 15.7 -1 14 C-2.65 14 -4.3 14 -6 14 C-4.508 9.028 -2.395 4.582 0 0 Z " fill="#1184ED" transform="translate(141,20)"/>
<path d="M0 0 C7.59 0 15.18 0 23 0 C22 11 22 11 20 15 C19.34 12.69 18.68 10.38 18 8 C17.34 9.65 16.68 11.3 16 13 C15.34 13 14.68 13 14 13 C14.33 9.04 14.66 5.08 15 1 C10.05 1 5.1 1 0 1 C0 0.67 0 0.34 0 0 Z " fill="#3982D5" transform="translate(120,111)"/>
<path d="M0 0 C0 0.66 0 1.32 0 2 C-1.32 2 -2.64 2 -4 2 C-4 3.32 -4 4.64 -4 6 C-7.604 6.087 -11.208 6.14 -14.812 6.188 C-15.325 6.2 -15.325 6.2 -17.916 6.264 C-18.407 6.269 -18.407 6.269 -20.895 6.293 C-21.801 6.309 -22.706 6.324 -23.64 6.341 C-26.424 5.939 -27.276 5.163 -29 3 C-26.622 1.811 -25.005 1.814 -22.352 1.719 C-21.429 1.681 -20.506 1.644 -19.555 1.605 C-18.588 1.571 -17.621 1.536 -16.625 1.5 C-14.721 1.431 -12.818 1.358 -10.914 1.281 C-10.068 1.251 -9.222 1.221 -8.35 1.189 C-5.49 0.959 -2.858 0 0 0 Z " fill="#F7FAFD" transform="translate(115,39)"/>
<path d="M0 0 C1.65 0 3.3 0 5 0 C5 0.99 5 1.98 5 3 C5.99 3.33 6.98 3.66 8 4 C7.662 4.519 7.325 5.039 6.977 5.574 C5.02 8.634 3.202 11.483 1.875 14.875 C1 17 1 17 -2 19 C-2 18.01 -2 17.02 -2 16 C-2.66 17.32 -3.32 18.64 -4 20 C-5.216 16.352 -4.659 15.656 -3.125 12.25 C-1.348 8.071 -0.392 4.51 0 0 Z " fill="#218948" transform="translate(146,120)"/>
<path d="M0 0 C0.99 0.165 0.99 0.165 6 1 C6.338 2.582 6.67 4.166 7 5.75 C7.186 6.632 7.371 7.513 7.562 8.422 C8 11 8 11 8 15 C5.125 15.188 5.125 15.188 2 15 C-0.351 11.473 -0.214 9.971 -0.125 5.812 C-0.107 4.726 -0.089 3.639 -0.07 2.52 C-0.047 1.688 -0.024 0.857 0 0 Z " fill="#0364DB" transform="translate(17,97)"/>
<path d="M0 0 C4.466 2.233 5.671 3.674 8 8 C8.306 11.187 8.433 13.134 7 16 C6.01 16 5.02 16 4 16 C3.34 17.32 2.68 18.64 2 20 C1.67 20 1.34 20 1 20 C1 17.36 1 14.72 1 12 C2.32 11.67 3.64 11.34 5 11 C3.68 10.34 2.36 9.68 1 9 C0.67 9.66 0.34 10.32 0 11 C0 7.37 0 3.74 0 0 Z " fill="#F3A202" transform="translate(182,60)"/>
<path d="M0 0 C0.99 0 1.98 0 3 0 C3 7.92 3 15.84 3 24 C2.01 24 1.02 24 0 24 C-1.219 21.563 -1.129 19.967 -1.133 17.246 C-1.134 16.31 -1.135 15.373 -1.137 14.408 C-1.133 13.428 -1.129 12.448 -1.125 11.438 C-1.129 10.453 -1.133 9.469 -1.137 8.455 C-1.135 7.52 -1.134 6.585 -1.133 5.621 C-1.132 4.759 -1.131 3.897 -1.129 3.01 C-1 1 -1 1 0 0 Z " fill="#0282E3" transform="translate(19,29)"/>
<path d="M0 0 C0.99 0.33 1.98 0.66 3 1 C3 8.59 3 16.18 3 24 C1.68 23.67 0.36 23.34 -1 23 C-1.029 19.354 -1.047 15.708 -1.062 12.062 C-1.071 11.022 -1.079 9.981 -1.088 8.908 C-1.09 8.414 -1.09 8.414 -1.098 5.91 C-1.103 4.994 -1.108 4.077 -1.114 3.133 C-1 1 -1 1 0 0 Z " fill="#016BC7" transform="translate(177,29)"/>
<path d="M0 0 C0.99 0 1.98 0 3 0 C3 5.61 3 11.22 3 17 C-2.5 14.25 -2.5 14.25 -4 12 C-4.253 9.282 -4.135 6.741 -4 4 C-2.68 3.67 -1.36 3.34 0 3 C0 2.01 0 1.02 0 0 Z " fill="#F58D05" transform="translate(13,87)"/>
<path d="M0 0 C1.32 0.66 2.64 1.32 4 2 C4.506 8.073 3.042 11.772 0 17 C1.32 17 2.64 17 4 17 C3.67 17.99 3.34 18.98 3 20 C1.02 19.34 -0.96 18.68 -3 18 C-2.885 15.937 -2.758 13.875 -2.625 11.812 C-2.555 10.664 -2.486 9.515 -2.414 8.332 C-2.025 5.2 -1.319 2.847 0 0 Z " fill="#F4F7FA" transform="translate(142,36)"/>
<path d="M0 0 C1.32 0 2.64 0 4 0 C4.127 0.266 4.127 0.266 4.77 1.609 C6.583 5.332 8.331 8.798 11 12 C10.67 12.33 10.34 12.66 10 13 C10.66 13.66 11.32 14.32 12 15 C11.01 15.33 10.02 15.66 9 16 C5.267 13.9 1.943 11.886 0 8 C-0.235 5.28 -0.137 2.74 0 0 Z " fill="#0467D5" transform="translate(77,24)"/>
<path d="M0 0 C0 1.32 0 2.64 0 4 C-0.344 4.163 -0.344 4.163 -2.082 4.988 C-2.983 5.425 -3.884 5.862 -4.812 6.312 C-5.706 6.742 -6.599 7.171 -7.52 7.613 C-10 9 -10 9 -11.574 10.668 C-13 12 -13 12 -17 12 C-17 9.812 -17 9.812 -16 7 C-13.515 4.998 -10.816 3.489 -8 2 C-7.336 1.622 -6.672 1.245 -5.988 0.855 C-4 0 -4 0 0 0 Z " fill="#0E7D39" transform="translate(168,111)"/>
<path d="M0 0 C0.33 0 0.66 0 1 0 C1 1.98 1 3.96 1 6 C1.66 6 2.32 6 3 6 C3 10.62 3 15.24 3 20 C3.66 20 4.32 20 5 20 C4.67 21.65 4.34 23.3 4 25 C3.01 25 2.02 25 1 25 C1 25.66 1 26.32 1 27 C1.66 27.33 2.32 27.66 3 28 C2.34 28.99 1.68 29.98 1 31 C-0.119 27.643 -0.114 25.118 -0.098 21.582 C-0.094 20.328 -0.091 19.075 -0.088 17.783 C-0.08 16.473 -0.071 15.163 -0.062 13.812 C-0.057 12.477 -0.053 11.142 -0.049 9.807 C-0.037 6.538 -0.021 3.269 0 0 Z " fill="#102549" transform="translate(40,71)"/>
<path d="M0 0 C1.65 0.33 3.3 0.66 5 1 C4.67 5.62 4.34 10.24 4 15 C3.67 15 3.34 15 3 15 C2.67 13.02 2.34 11.04 2 9 C1.01 9.33 0.02 9.66 -1 10 C-1.33 10.99 -1.66 11.98 -2 13 C-2.33 13.165 -2.33 13.165 -4 14 C-3.66 8.62 -3.314 4.467 0 0 Z " fill="#144277" transform="translate(136,33)"/>
<path d="M0 0 C0.784 0.041 1.567 0.082 2.375 0.125 C2.375 0.785 2.375 1.445 2.375 2.125 C2.994 2.414 3.613 2.703 4.25 3 C6.375 4.125 6.375 4.125 8.375 6.125 C8.688 8.625 8.688 8.625 8.375 11.125 C7.385 11.785 6.395 12.445 5.375 13.125 C5.375 11.475 5.375 9.825 5.375 8.125 C2.393 7.352 -0.601 6.713 -3.625 6.125 C-4.25 4.25 -4.25 4.25 -4.625 2.125 C-2.625 0.125 -2.625 0.125 0 0 Z " fill="#FAB20C" transform="translate(17.625,7.875)"/>
<path d="M0 0 C0.33 0 0.66 0 1 0 C1.33 4.29 1.66 8.58 2 13 C2.33 10.69 2.66 8.38 3 6 C5.454 9.681 5.228 12.444 5.125 16.688 C5.116 17.389 5.107 18.091 5.098 18.814 C5.074 20.543 5.038 22.272 5 24 C2.924 24.553 1.156 25 -1 25 C-0.67 16.75 -0.34 8.5 0 0 Z " fill="#E4E6EB" transform="translate(158,75)"/>
<path d="M0 0 C0.66 0.33 1.32 0.66 2 1 C4.008 0.719 6.01 0.389 8 0 C8 1.98 8 3.96 8 6 C6.35 6 4.7 6 3 6 C2.67 7.32 2.34 8.64 2 10 C-0.31 9.67 -2.62 9.34 -5 9 C-4.546 8.257 -4.093 7.515 -3.625 6.75 C-2.314 4.531 -1.117 2.32 0 0 Z " fill="#2FB951" transform="translate(192,132)"/>
<path d="M0 0 C6.37 0.601 6.37 0.601 8.875 2.188 C10.434 4.7 10.677 7.092 11 10 C12.65 10 14.3 10 16 10 C16.33 8.02 16.66 6.04 17 4 C18.32 4.33 19.64 4.66 21 5 C20.514 10.468 20.514 10.468 18.25 12.812 C15.782 14.115 13.773 14.708 11 15 C9 14 9 14 7.75 11.125 C7.502 10.094 7.255 9.062 7 8 C7.66 7.01 8.32 6.02 9 5 C8.34 5 7.68 5 7 5 C6 4 5 3 4 2 C1.812 0.812 1.812 0.812 0 0 Z " fill="#032556" transform="translate(67,84)"/>
<path d="M0 0 C1.98 0 3.96 0 6 0 C6 2.333 6 4.667 6 7 C-2.58 7 -11.16 7 -20 7 C-20 6.67 -20 6.34 -20 6 C-18.952 5.963 -17.904 5.925 -16.824 5.887 C-15.445 5.821 -14.066 5.755 -12.688 5.688 C-12.342 5.676 -12.342 5.676 -10.596 5.619 C-5.443 5.345 -5.443 5.345 -3.02 3.457 C-2.851 3.217 -2.851 3.217 -2 2 C-1.01 2.33 -0.02 2.66 1 3 C0.67 2.01 0.34 1.02 0 0 Z " fill="#CDD0D9" transform="translate(108,114)"/>
<path d="M0 0 C1.65 0.33 3.3 0.66 5 1 C5.33 2.32 5.66 3.64 6 5 C7.32 5.33 8.64 5.66 10 6 C10 6.99 10 7.98 10 9 C9.34 9 8.68 9 8 9 C8 9.66 8 10.32 8 11 C6.68 11.33 5.36 11.66 4 12 C3.897 11.361 3.794 10.721 3.688 10.062 C3.461 9.382 3.234 8.701 3 8 C2.01 7.67 1.02 7.34 0 7 C-1.044 3.867 -0.934 3.01 0 0 Z " fill="#0071DE" transform="translate(116,8)"/>
<path d="M0 0 C0 0.99 0 1.98 0 3 C-0.66 3.66 -1.32 4.32 -2 5 C-1.398 7.02 -0.727 9.021 0 11 C0.66 11.33 1.32 11.66 2 12 C3.258 19.204 3.145 26.706 3 34 C2.67 34 2.34 34 2 34 C1.83 32.721 1.66 31.442 1.484 30.125 C1.24 28.417 0.995 26.708 0.75 25 C0.64 24.161 0.531 23.322 0.418 22.457 C-0.548 15.896 -2.201 9.799 -7 5 C-4.69 3.35 -2.38 1.7 0 0 Z " fill="#338DE1" transform="translate(57,20)"/>
<path d="M0 0 C0.667 1.333 1.333 2.667 2 4 C2.536 5.031 3.072 6.062 3.625 7.125 C5 10 5 10 5 12 C0.435 11.457 -2.973 10.205 -7 8 C-6.34 7.34 -5.68 6.68 -5 6 C-4.01 6 -3.02 6 -2 6 C-2 4.35 -2 2.7 -2 1 C-1.34 0.67 -0.68 0.34 0 0 Z " fill="#E4F1FB" transform="translate(58,128)"/>
<path d="M0 0 C0 0.66 0 1.32 0 2 C-1.32 1.67 -2.64 1.34 -4 1 C-4 2.65 -4 4.3 -4 6 C-4.66 6 -5.32 6 -6 6 C-6 7.32 -6 8.64 -6 10 C-9 10 -9 10 -10.75 8.75 C-12 7 -12 7 -11.875 5 C-10.884 2.734 -9.919 1.55 -8 0 C-4.71 -1.097 -3.287 -0.8 0 0 Z " fill="#FCFDFD" transform="translate(138,24)"/>
<path d="M0 0 C0.99 0.165 0.99 0.165 6 1 C5.67 1.165 5.67 1.165 4 2 C4.33 6.29 4.66 10.58 5 15 C6.65 15.33 8.3 15.66 10 16 C9.34 16.66 8.68 17.32 8 18 C6.68 18 5.36 18 4 18 C2.364 15.031 1.513 12.324 0.875 9 C0.707 8.154 0.54 7.309 0.367 6.438 C0 4 0 4 0 0 Z " fill="#196AC7" transform="translate(55,112)"/>
<path d="M0 0 C0.185 12.67 0.185 12.67 -1 18 C-1.33 18 -1.66 18 -2 18 C-2 15.03 -2 12.06 -2 9 C-3.32 9.33 -4.64 9.66 -6 10 C-6.227 6.672 -6.322 4.582 -4.688 1.625 C-3 0 -3 0 0 0 Z " fill="#EBBC44" transform="translate(16,61)"/>
<path d="M0 0 C0.33 2.31 0.66 4.62 1 7 C-0.32 6.67 -1.64 6.34 -3 6 C-2.988 6.843 -2.977 7.686 -2.965 8.555 C-2.96 9.103 -2.96 9.103 -2.938 11.875 C-2.926 12.966 -2.914 14.056 -2.902 15.18 C-3 18 -3 18 -4 20 C-4.66 19.67 -5.32 19.34 -6 19 C-6.054 16.75 -6.093 14.5 -6.125 12.25 C-6.148 10.997 -6.171 9.744 -6.195 8.453 C-6.015 5.26 -5.798 3.59 -4 1 C-2 0 -2 0 0 0 Z " fill="#0A3E83" transform="translate(65,35)"/>
<path d="M0 0 C0.33 0 0.66 0 1 0 C1 3.333 1 6.667 1 10 C0.01 10 -0.98 10 -2 10 C-2.33 10.495 -2.33 10.495 -4 13 C-4.99 12.835 -4.99 12.835 -10 12 C-9.613 11.553 -9.227 11.105 -8.828 10.645 C-6.394 7.819 -3.995 4.993 -1.688 2.062 C-1.131 1.382 -0.574 0.701 0 0 Z " fill="#2FB958" transform="translate(181,146)"/>
<path d="M0 0 C1.65 0 3.3 0 5 0 C5.441 4.5 5.529 6.346 2.625 9.938 C0 12 0 12 -2 12 C-1.34 8.04 -0.68 4.08 0 0 Z " fill="#EDF1F5" transform="translate(143,112)"/>
<path d="M0 0 C0.33 0 0.66 0 1 0 C1.33 7.26 1.66 14.52 2 22 C0.68 22 -0.64 22 -2 22 C-2.054 19.458 -2.094 16.917 -2.125 14.375 C-2.142 13.662 -2.159 12.949 -2.176 12.215 C-2.217 7.739 -1.691 4.221 0 0 Z " fill="#0674E2" transform="translate(20,64)"/>
<path d="M0 0 C1.32 0 2.64 0 4 0 C4 3.96 4 7.92 4 12 C4.66 12 5.32 12 6 12 C5.67 12.99 5.34 13.98 5 15 C4.67 15.165 4.67 15.165 3 16 C0.55 10.283 -0.333 6.21 0 0 Z " fill="#F1F6FB" transform="translate(65,119)"/>
<path d="M0 0 C0.676 1.766 0.676 1.766 1 4 C-0.145 5.922 -0.145 5.922 -1.812 7.75 C-2.084 8.057 -2.084 8.057 -3.457 9.609 C-5 11 -5 11 -7 11 C-7 8.03 -7 5.06 -7 2 C-2.25 0 -2.25 0 0 0 Z " fill="#D96E0A" transform="translate(189,94)"/>
<path d="M0 0 C0.495 0.33 0.495 0.33 3 2 C3.99 2 4.98 2 6 2 C6.625 4.875 6.625 4.875 7 8 C6.34 8.66 5.68 9.32 5 10 C0.444 9.444 0.444 9.444 -1 8 C-1.235 2.471 -1.235 2.471 0 0 Z " fill="#26A7F0" transform="translate(56,85)"/>
<path d="M0 0 C2.993 3.492 3 5.422 3 10 C2.34 10 1.68 10 1 10 C0.67 10.99 0.34 11.98 0 13 C-0.825 12.67 -0.825 12.67 -5 11 C-3.775 6.947 -2.301 3.556 0 0 Z " fill="#E3E5EB" transform="translate(38,39)"/>
<path d="M0 0 C7.652 1.217 7.652 1.217 10 2 C11.245 4.491 10.777 5.411 10 8 C8.35 8 6.7 8 5 8 C4.67 7.34 4.34 6.68 4 6 C2.68 6 1.36 6 0 6 C0 4.02 0 2.04 0 0 Z " fill="#FDB005" transform="translate(13,13)"/>
<path d="M0 0 C1.676 1.254 1.676 1.254 3 3 C3.293 5.262 3.293 5.262 3.188 7.688 C3.16 8.496 3.133 9.304 3.105 10.137 C3.071 10.752 3.036 11.366 3 12 C2.34 12 1.68 12 1 12 C0.752 11.072 0.505 10.144 0.25 9.188 C-1.087 5.778 -2.051 4.966 -5 3 C-5 2.34 -5 1.68 -5 1 C-6.32 0.67 -7.64 0.34 -9 0 C-5.45 -1.183 -3.6 -0.9 0 0 Z " fill="#F09C08" transform="translate(25,7)"/>
<path d="M0 0 C0 0.33 0 0.66 0 1 C-1.65 1 -3.3 1 -5 1 C-5 1.99 -5 2.98 -5 4 C-9.95 4 -14.9 4 -20 4 C-20 3.01 -20 2.02 -20 1 C-13.303 -0.03 -6.769 -0.102 0 0 Z " fill="#031940" transform="translate(114,121)"/>
<path d="M0 0 C2.531 1.571 2.956 3.342 3.812 6.125 C-3.938 7.25 -3.938 7.25 -6.188 6.125 C-5.858 7.115 -5.528 8.105 -5.188 9.125 C-6.508 9.125 -7.828 9.125 -9.188 9.125 C-7.531 5.059 -4.725 0.27 0 0 Z " fill="#EEF6FB" transform="translate(51.1875,25.875)"/>
<path d="M0 0 C1.812 0 1.812 0 4 1 C5.846 2.898 7.384 4.89 9 7 C8.67 7.165 8.67 7.165 7 8 C4.875 7.062 4.875 7.062 3 6 C3 5.34 3 4.68 3 4 C2.34 3.67 1.68 3.34 1 3 C1.33 5.64 1.66 8.28 2 11 C-0.562 8.75 -0.562 8.75 -3 6 C-2.912 2.933 -2.186 2.186 0 0 Z " fill="#E2F4E6" transform="translate(158,139)"/>
<path d="M0 0 C2.8 3.146 3.353 5.067 3.188 9.25 C3.16 10.142 3.133 11.034 3.105 11.953 C3.071 12.629 3.036 13.304 3 14 C1.35 14 -0.3 14 -2 14 C-2.369 4.59 -2.369 4.59 0 0 Z " fill="#F5BA1E" transform="translate(9,66)"/>
<path d="M0 0 C0.33 0 0.66 0 1 0 C1.015 0.66 1.029 1.32 1.044 2 C1.119 5.022 1.216 8.042 1.312 11.062 C1.335 12.101 1.358 13.139 1.381 14.209 C1.592 20.268 2.365 24.561 5 30 C4.67 30.66 4.34 31.32 4 32 C2.062 31.688 2.062 31.688 0 31 C-0.33 30.01 -0.66 29.02 -1 28 C-0.34 28 0.32 28 1 28 C0.837 27.456 0.674 26.913 0.506 26.353 C-0.08 23.626 -0.112 21.149 -0.098 18.359 C-0.094 17.289 -0.091 16.22 -0.088 15.117 C-0.08 14.006 -0.071 12.895 -0.062 11.75 C-0.058 10.623 -0.053 9.497 -0.049 8.336 C-0.037 5.557 -0.021 2.779 0 0 Z " fill="#CCD2DB" transform="translate(39,76)"/>
<path d="M0 0 C1.258 -0.026 2.516 -0.052 3.812 -0.078 C4.864 0.03 5.916 0.138 7 0.25 C7.66 1.24 8.32 2.23 9 3.25 C2.07 3.25 -4.86 3.25 -12 3.25 C-7.601 0.317 -5.31 0.065 0 0 Z " fill="#0E6AC7" transform="translate(100,37.75)"/>
<path d="M0 0 C1.815 0.495 1.815 0.495 11 3 C8.375 7.875 8.375 7.875 5 9 C3.02 6.36 1.04 3.72 -1 1 C-0.67 0.67 -0.34 0.34 0 0 Z " fill="#39BC5C" transform="translate(163,139)"/>
<path d="M0 0 C1.32 0.33 2.64 0.66 4 1 C4 2.98 4 4.96 4 7 C0.7 7.33 -2.6 7.66 -6 8 C-5.34 6.68 -4.68 5.36 -4 4 C-3.01 4 -2.02 4 -1 4 C-0.67 2.68 -0.34 1.36 0 0 Z " fill="#1362BC" transform="translate(131,134)"/>
<path d="M0 0 C2 3 2 3 1.875 5.938 C0.85 9.525 0.036 10.843 -3 13 C-6.625 13.875 -6.625 13.875 -10 14 C-10.66 13.34 -11.32 12.68 -12 12 C-7.981 10.188 -4.389 8.665 0 8 C0 5.36 0 2.72 0 0 Z " fill="#C66613" transform="translate(186,11)"/>
<path d="M0 0 C0.99 0.165 0.99 0.165 6 1 C3 4 0 7 -3 10 C-3.99 9.34 -4.98 8.68 -6 8 C-4.597 4.611 -2.98 3.086 0 1 C0 0.67 0 0.34 0 0 Z " fill="#02214E" transform="translate(58,76)"/>
<path d="M0 0 C0.33 0 0.66 0 1 0 C1 1.98 1 3.96 1 6 C3.375 5.688 3.375 5.688 6 5 C6.66 4.01 7.32 3.02 8 2 C8.33 2.495 8.33 2.495 10 5 C9.34 5.66 8.68 6.32 8 7 C8.375 9.625 8.375 9.625 9 12 C8.01 12 7.02 12 6 12 C6 10.35 6 8.7 6 7 C4.02 7.33 2.04 7.66 0 8 C-0.33 9.32 -0.66 10.64 -1 12 C-1.027 10.188 -1.046 8.375 -1.062 6.562 C-1.074 5.553 -1.086 4.544 -1.098 3.504 C-1 1 -1 1 0 0 Z " fill="#31B854" transform="translate(148,135)"/>
<path d="M0 0 C0.33 0 0.66 0 1 0 C1.33 1.65 1.66 3.3 2 5 C3.65 5.33 5.3 5.66 7 6 C6.688 7.875 6.688 7.875 6 10 C5.01 10.66 4.02 11.32 3 12 C0.438 9.75 0.438 9.75 -2 7 C-1.875 4.875 -1.875 4.875 -1 3 C-0.67 2.01 -0.34 1.02 0 0 Z " fill="#012350" transform="translate(113,89)"/>
<path d="M0 0 C3.25 0.375 3.25 0.375 6.188 2.625 C8.25 5.375 8.25 5.375 8.062 7.688 C7.794 8.244 7.526 8.801 7.25 9.375 C5.874 8.085 4.542 6.748 3.25 5.375 C3.25 4.715 3.25 4.055 3.25 3.375 C0.28 4.035 -2.69 4.695 -5.75 5.375 C-3.287 0.448 -3.287 0.448 0 0 Z " fill="#042453" transform="translate(127.75,83.625)"/>
<path d="M0 0 C6.359 1.241 9.184 5.145 13 10 C12.67 10.66 12.34 11.32 12 12 C10.68 12 9.36 12 8 12 C7.67 9.69 7.34 7.38 7 5 C6.216 4.918 5.433 4.835 4.625 4.75 C2 4 2 4 0.688 1.938 C0.461 1.298 0.234 0.659 0 0 Z " fill="#192D4E" transform="translate(143,56)"/>
<path d="M0 0 C0.33 0 0.66 0 1 0 C1.33 3.63 1.66 7.26 2 11 C2.33 11 2.66 11 3 11 C3.33 14.96 3.66 18.92 4 23 C3.01 23 2.02 23 1 23 C-0.226 20.547 -0.114 18.949 -0.098 16.211 C-0.094 15.27 -0.091 14.329 -0.088 13.359 C-0.08 12.375 -0.071 11.39 -0.062 10.375 C-0.058 9.382 -0.053 8.39 -0.049 7.367 C-0.037 4.911 -0.021 2.456 0 0 Z " fill="#0367BE" transform="translate(18,30)"/>
<path d="M0 0 C2 3 2 3 2 7 C2.99 7 3.98 7 5 7 C5.66 6.34 6.32 5.68 7 5 C6.125 9.875 6.125 9.875 5 11 C2.5 11.125 2.5 11.125 0 11 C-0.33 10.67 -0.66 10.34 -1 10 C-0.91 8.309 -0.754 6.62 -0.562 4.938 C-0.461 4.018 -0.359 3.099 -0.254 2.152 C-0.17 1.442 -0.086 0.732 0 0 Z " fill="#259FE5" transform="translate(115,84)"/>
<path d="M0 0 C4 2 4 2 6 4 C6 5.32 6 6.64 6 8 C5.196 8.124 4.391 8.248 3.562 8.375 C2.717 8.581 1.871 8.787 1 9 C0.67 9.66 0.34 10.32 0 11 C0 7.37 0 3.74 0 0 Z " fill="#EDAC23" transform="translate(182,60)"/>
<path d="M0 0 C0.66 1.32 1.32 2.64 2 4 C3.32 4 4.64 4 6 4 C5.34 5.98 4.68 7.96 4 10 C2.35 9.01 0.7 8.02 -1 7 C-1.33 8.32 -1.66 9.64 -2 11 C-2.66 11 -3.32 11 -4 11 C-2.787 7.276 -1.491 3.622 0 0 Z " fill="#196ED2" transform="translate(132,127)"/>
<path d="M0 0 C3.04 1.52 4.723 2.518 6.438 5.5 C6.623 6.325 6.809 7.15 7 8 C6.67 8.495 6.67 8.495 5 11 C5 10.34 5 9.68 5 9 C4.257 9.248 3.515 9.495 2.75 9.75 C2.296 9.791 2.296 9.791 0 10 C-2.312 8.062 -2.312 8.062 -4 6 C-3.34 6 -2.68 6 -2 6 C-1.67 5.34 -1.34 4.68 -1 4 C-1 4.99 -1 5.98 -1 7 C-0.01 7 0.98 7 2 7 C1.424 4.614 0.778 2.333 0 0 Z " fill="#27A3EE" transform="translate(76,78)"/>
<path d="M0 0 C1.875 0.312 1.875 0.312 4 1 C4.66 1.99 5.32 2.98 6 4 C-1.5 9 -1.5 9 -4 9 C-2.941 5.597 -1.991 2.986 0 0 Z " fill="#F1F8FD" transform="translate(147,26)"/>
<path d="M0 0 C0.66 0.33 1.32 0.66 2 1 C2 1.66 2 2.32 2 3 C2.66 3.33 3.32 3.66 4 4 C2.928 4.454 1.855 4.907 0.75 5.375 C-1.881 6.501 -4.46 7.679 -7 9 C-7.043 7 -7.041 5 -7 3 C-6 2 -6 2 -2.938 1.938 C-2.453 1.948 -2.453 1.948 0 2 C0 1.34 0 0.68 0 0 Z " fill="#EEEFF2" transform="translate(55,51)"/>
<path d="M0 0 C0.625 2.562 0.625 2.562 1 5 C-4.023 3.818 -7.095 2.55 -11 -1 C-6.982 -2.339 -3.773 -1.887 0 0 Z " fill="#0D7335" transform="translate(165,169)"/>
<path d="M0 0 C0.66 1.32 1.32 2.64 2 4 C2.66 3.67 3.32 3.34 4 3 C4 6.3 4 9.6 4 13 C3.67 12.34 3.34 11.68 3 11 C1.68 11 0.36 11 -1 11 C-0.67 7.37 -0.34 3.74 0 0 Z " fill="#128E43" transform="translate(143,134)"/>
<path d="M0 0 C0.134 0.278 0.134 0.278 0.812 1.688 C2.655 5.276 4.763 8.645 7 12 C4.36 12 1.72 12 -1 12 C-1.082 7.839 -0.982 4.053 0 0 Z " fill="#DEE2E7" transform="translate(82,122)"/>
<path d="M0 0 C2.136 3.204 2.231 4.019 2.125 7.688 C2.107 8.496 2.089 9.304 2.07 10.137 C2.047 10.752 2.024 11.366 2 12 C3.32 12 4.64 12 6 12 C5.67 12.99 5.34 13.98 5 15 C3.02 14.34 1.04 13.68 -1 13 C-0.67 8.71 -0.34 4.42 0 0 Z " fill="#E0E7EF" transform="translate(140,41)"/>
<path d="M0 0 C0.99 0.33 1.98 0.66 3 1 C2.34 4.63 1.68 8.26 1 12 C0.34 12 -0.32 12 -1 12 C-1 11.34 -1 10.68 -1 10 C-1.66 10 -2.32 10 -3 10 C-2.39 6.442 -1.422 3.317 0 0 Z " fill="#0763CC" transform="translate(120,21)"/>
<path d="M0 0 C5.656 -0.566 9.226 1.286 14 4 C14 4.33 14 4.66 14 5 C9.71 4.67 5.42 4.34 1 4 C0.67 2.68 0.34 1.36 0 0 Z " fill="#DBDFE6" transform="translate(127,15)"/>
<path d="M0 0 C0 0.66 0 1.32 0 2 C-0.66 2 -1.32 2 -2 2 C-2 2.66 -2 3.32 -2 4 C-1.34 4 -0.68 4 0 4 C1.671 6.962 2.327 9.371 2.625 12.75 C2.7 13.549 2.775 14.348 2.852 15.172 C2.876 15.474 2.876 15.474 3 17 C1.368 14.552 -0.156 12.109 -1.625 9.562 C-2.071 8.801 -2.517 8.039 -2.977 7.254 C-4 5 -4 5 -4 1 C-2 0 -2 0 0 0 Z " fill="#DCE9F3" transform="translate(62,18)"/>
<path d="M0 0 C0.99 0 1.98 0 3 0 C7 6.75 7 6.75 7 9 C3.7 8.67 0.4 8.34 -3 8 C-2.67 7.34 -2.34 6.68 -2 6 C-0.68 6 0.64 6 2 6 C2 4.68 2 3.36 2 2 C1.34 2 0.68 2 0 2 C0 1.34 0 0.68 0 0 Z " fill="#1882E5" transform="translate(65,133)"/>
<path d="M0 0 C0.825 0.165 0.825 0.165 5 1 C4.549 2.461 4.089 3.918 3.625 5.375 C3.37 6.187 3.115 6.999 2.852 7.836 C2 10 2 10 0 12 C0 8.04 0 4.08 0 0 Z " fill="#FB960B" transform="translate(182,84)"/>
<path d="M0 0 C0.99 0 1.98 0 3 0 C3 0.66 3 1.32 3 2 C3.566 2.11 4.132 2.219 4.715 2.332 C5.082 2.411 5.082 2.411 6.938 2.812 C7.668 2.963 8.399 3.114 9.152 3.27 C9.762 3.511 10.372 3.752 11 4 C11.33 4.99 11.66 5.98 12 7 C9.938 7.938 9.938 7.938 7 8 C4.344 5.953 2.116 3.597 0 1 C0 0.67 0 0.34 0 0 Z " fill="#E2F4E7" transform="translate(160,150)"/>
<path d="M0 0 C0.082 0.907 0.165 1.815 0.25 2.75 C1.092 6.401 2.179 7.634 5 10 C4.34 10.66 3.68 11.32 3 12 C1.849 10.734 0.704 9.462 -0.438 8.188 C-1.076 7.48 -1.714 6.772 -2.371 6.043 C-4 4 -4 4 -5 1 C-3 0 -3 0 0 0 Z " fill="#E4E7EC" transform="translate(38,117)"/>
<path d="M0 0 C1.32 0.33 2.64 0.66 4 1 C3.01 1 2.02 1 1 1 C0.897 1.639 0.794 2.279 0.688 2.938 C-0.239 7.065 -1.617 11.006 -3 15 C-3.33 14.01 -3.66 13.02 -4 12 C-4.66 11.67 -5.32 11.34 -6 11 C-5.34 11 -4.68 11 -4 11 C-4 10.01 -4 9.02 -4 8 C-4.66 7.34 -5.32 6.68 -6 6 C-4.68 5.67 -3.36 5.34 -2 5 C-2 4.34 -2 3.68 -2 3 C-1.34 3 -0.68 3 0 3 C0 2.01 0 1.02 0 0 Z " fill="#277BD7" transform="translate(126,14)"/>
<path d="M0 0 C0.33 0 0.66 0 1 0 C1.33 4.29 1.66 8.58 2 13 C3.32 13.33 4.64 13.66 6 14 C5.67 14.33 5.34 14.66 5 15 C3.02 15 1.04 15 -1 15 C-0.67 10.05 -0.34 5.1 0 0 Z " fill="#0153B1" transform="translate(175,92)"/>
<path d="M0 0 C1.32 0 2.64 0 4 0 C4 3.96 4 7.92 4 12 C3.67 10.68 3.34 9.36 3 8 C2.01 7.67 1.02 7.34 0 7 C0 4.69 0 2.38 0 0 Z " fill="#041734" transform="translate(153,85)"/>
<path d="M0 0 C1.65 0.33 3.3 0.66 5 1 C5 3.31 5 5.62 5 8 C4.67 7.34 4.34 6.68 4 6 C0.938 5.375 0.938 5.375 -2 5 C-1.34 3.35 -0.68 1.7 0 0 Z " fill="#0953AD" transform="translate(136,33)"/>
<path d="M0 0 C2.964 2.808 5.445 5.183 7 9 C4.69 8.67 2.38 8.34 0 8 C-0.981 4.947 -0.981 3.053 0 0 Z " fill="#DFE1E7" transform="translate(153,30)"/>
<path d="M0 0 C0.99 0.33 1.98 0.66 3 1 C3.33 2.65 3.66 4.3 4 6 C4.99 6.33 5.98 6.66 7 7 C4.69 7.33 2.38 7.66 0 8 C-0.8 4.713 -1.097 3.29 0 0 Z " fill="#F6AB0F" transform="translate(173,15)"/>
<path d="M0 0 C6.523 0.615 6.523 0.615 8.938 2.562 C9.288 3.037 9.639 3.511 10 4 C9.67 4.99 9.34 5.98 9 7 C5.216 6.075 3.433 5.606 1.125 2.375 C0.754 1.591 0.383 0.808 0 0 Z " fill="#182C50" transform="translate(43,104)"/>
<path d="M0 0 C0.99 0.33 1.98 0.66 3 1 C2.34 1 1.68 1 1 1 C-0.748 5.304 -2.377 9.648 -4 14 C-4.33 14 -4.66 14 -5 14 C-5.054 12.563 -5.093 11.125 -5.125 9.688 C-5.148 8.887 -5.171 8.086 -5.195 7.262 C-5 5 -5 5 -3 2 C-2.01 2 -1.02 2 0 2 C0 1.34 0 0.68 0 0 Z " fill="#288EEC" transform="translate(146,25)"/>
<path d="M0 0 C2.125 0.375 2.125 0.375 4 1 C3.67 2.65 3.34 4.3 3 6 C1.68 6 0.36 6 -1 6 C-1.625 4.125 -1.625 4.125 -2 2 C-1.34 1.34 -0.68 0.68 0 0 Z " fill="#F3E8C9" transform="translate(15,8)"/>
<path d="M0 0 C0.99 0.66 1.98 1.32 3 2 C2.165 4.504 1.206 6.668 0 9 C-1.65 9 -3.3 9 -5 9 C-4.546 8.257 -4.093 7.515 -3.625 6.75 C-2.314 4.531 -1.117 2.32 0 0 Z " fill="#41BF62" transform="translate(192,132)"/>
<path d="M0 0 C2.31 0 4.62 0 7 0 C7.33 4.29 7.66 8.58 8 13 C6 9 6 9 6 5 C5.01 5 4.02 5 3 5 C3 4.01 3 3.02 3 2 C2.01 1.34 1.02 0.68 0 0 Z " fill="#094C9E" transform="translate(56,112)"/>
<path d="M0 0 C0.66 0 1.32 0 2 0 C2 1.98 2 3.96 2 6 C0.35 6.33 -1.3 6.66 -3 7 C-3 7.66 -3 8.32 -3 9 C-3.66 9 -4.32 9 -5 9 C-3.758 5.561 -2.443 2.748 0 0 Z " fill="#13294D" transform="translate(47,60)"/>
<path d="M0 0 C0.33 0 0.66 0 1 0 C1.33 2.31 1.66 4.62 2 7 C3.32 7.33 4.64 7.66 6 8 C6 8.66 6 9.32 6 10 C7.32 10.33 8.64 10.66 10 11 C3.945 11.195 3.945 11.195 2 11 C-0.406 8.594 -0.604 7.33 -1 4 C-0.562 1.688 -0.562 1.688 0 0 Z " fill="#DD940B" transform="translate(12,11)"/>
<path d="M0 0 C0.33 0 0.66 0 1 0 C1.369 7.508 1.369 7.508 -0.5 10 C-0.995 10.33 -1.49 10.66 -2 11 C-2.667 8.333 -3.333 5.667 -4 3 C-2.68 2.67 -1.36 2.34 0 2 C0 1.34 0 0.68 0 0 Z " fill="#056AD7" transform="translate(77,11)"/>
<path d="M0 0 C2.509 1.038 3.832 1.766 5.438 4 C7.354 6.453 9.081 7.053 12 8 C11.67 8.66 11.34 9.32 11 10 C5.338 8.683 3.254 6.594 0 2 C0 1.34 0 0.68 0 0 Z " fill="#1573D6" transform="translate(77,30)"/>
<path d="M0 0 C-0.33 0.99 -0.66 1.98 -1 3 C-1.33 2.67 -1.66 2.34 -2 2 C-2 2.99 -2 3.98 -2 5 C-4.97 4.67 -7.94 4.34 -11 4 C-7.206 0.991 -4.97 0 0 0 Z " fill="#C4CDDB" transform="translate(73,14)"/>
<path d="M0 0 C0.812 0.29 1.624 0.58 2.461 0.879 C3.278 1.166 4.095 1.454 4.938 1.75 C5.564 1.978 6.19 2.206 6.836 2.441 C3.32 4.383 0.864 4.625 -3.164 4.441 C-2.834 3.451 -2.504 2.461 -2.164 1.441 C-2.824 1.111 -3.484 0.781 -4.164 0.441 C-2.164 -0.559 -2.164 -0.559 0 0 Z " fill="#3CB5FB" transform="translate(65.1640625,79.55859375)"/>
<path d="M0 0 C0.312 2.25 0.312 2.25 0 5 C-2.5 7.312 -2.5 7.312 -5 9 C-5.25 6.188 -5.25 6.188 -5 3 C-1.9 0 -1.9 0 0 0 Z " fill="#F0EDDA" transform="translate(15,62)"/>
<path d="M0 0 C0.041 0.309 0.041 0.309 0.25 1.875 C1 4 1 4 3.062 5.25 C3.702 5.498 4.341 5.745 5 6 C4.01 6.33 3.02 6.66 2 7 C2 6.34 2 5.68 2 5 C1.01 5.33 0.02 5.66 -1 6 C-1 5.34 -1 4.68 -1 4 C-3.64 4 -6.28 4 -9 4 C-8.361 3.876 -7.721 3.752 -7.062 3.625 C-6.722 3.522 -6.722 3.522 -5 3 C-4.67 2.34 -4.34 1.68 -4 1 C-2.68 1.33 -1.36 1.66 0 2 C0 1.34 0 0.68 0 0 Z " fill="#14335C" transform="translate(138,50)"/>
<path d="M0 0 C0 0.66 0 1.32 0 2 C-1.32 2 -2.64 2 -4 2 C-4.33 2.99 -4.66 3.98 -5 5 C-5.33 4.67 -5.66 4.34 -6 4 C-8.526 3.763 -11.031 3.578 -13.562 3.438 C-14.273 3.394 -14.984 3.351 -15.717 3.307 C-17.478 3.2 -19.239 3.1 -21 3 C-21 2.67 -21 2.34 -21 2 C-20.482 1.97 -20.482 1.97 -17.859 1.816 C-16.49 1.732 -15.12 1.647 -13.75 1.562 C-13.068 1.523 -12.386 1.484 -11.684 1.443 C-7.755 1.195 -3.871 0 0 0 Z " fill="#C7DFF3" transform="translate(115,39)"/>
<path d="M0 0 C0 0.99 0 1.98 0 3 C-1.32 3 -2.64 3 -4 3 C-4 7.29 -4 11.58 -4 16 C-4.33 16 -4.66 16 -5 16 C-5.223 14.252 -5.428 12.501 -5.625 10.75 C-5.741 9.775 -5.857 8.801 -5.977 7.797 C-6.001 4.836 -5.641 3.433 -4 1 C-2 0 -2 0 0 0 Z " fill="#0C56B0" transform="translate(65,35)"/>
<path d="M0 0 C0.495 0.33 0.495 0.33 3 2 C3.66 2 4.32 2 5 2 C5.33 3.32 5.66 4.64 6 6 C5.34 6 4.68 6 4 6 C4 6.66 4 7.32 4 8 C4.99 8.33 5.98 8.66 7 9 C6.01 9 5.02 9 4 9 C3.67 9.99 3.34 10.98 3 12 C2.01 8.04 1.02 4.08 0 0 Z " fill="#1F7FE4" transform="translate(73,17)"/>
<path d="M0 0 C1.938 1.562 1.938 1.562 3 3 C0.36 3 -2.28 3 -5 3 C-5 2.34 -5 1.68 -5 1 C-6.32 0.67 -7.64 0.34 -9 0 C-5.85 -1.575 -3.365 -0.708 0 0 Z " fill="#C98C16" transform="translate(183,7)"/>
<path d="M0 0 C0.33 0 0.66 0 1 0 C1.33 3.63 1.66 7.26 2 11 C1.175 10.67 1.175 10.67 -3 9 C-2.67 7.68 -2.34 6.36 -2 5 C-1.67 5 -1.34 5 -1 5 C-0.67 3.35 -0.34 1.7 0 0 Z " fill="#0060D0" transform="translate(23,101)"/>
<path d="M0 0 C2.64 0 5.28 0 8 0 C7.5 1.938 7.5 1.938 6 4 C3.303 4.688 0.798 4.819 -2 5 C-1.34 3.35 -0.68 1.7 0 0 Z " fill="#A2A5B1" transform="translate(161,104)"/>
<path d="M0 0 C3.08 2.054 4.718 4.129 7 7 C7.66 7.33 8.32 7.66 9 8 C9 8.99 9 9.98 9 11 C5.192 9.504 3.306 7.339 1 4 C0.25 1.688 0.25 1.688 0 0 Z " fill="#C87513" transform="translate(7,96)"/>
<path d="M0 0 C0.825 0.165 0.825 0.165 5 1 C4.625 2.938 4.625 2.938 4 5 C3.67 5.165 3.67 5.165 2 6 C1.34 6.99 0.68 7.98 0 9 C0 6.03 0 3.06 0 0 Z " fill="#0C6BD5" transform="translate(59,31)"/>
<path d="M0 0 C0.66 0.33 1.32 0.66 2 1 C3.54 1.07 5.083 1.085 6.625 1.062 C7.442 1.053 8.26 1.044 9.102 1.035 C9.728 1.024 10.355 1.012 11 1 C11 1.99 11 2.98 11 4 C9.375 4.054 7.75 4.093 6.125 4.125 C5.22 4.148 4.315 4.171 3.383 4.195 C1 4 1 4 -1 2 C-0.67 1.34 -0.34 0.68 0 0 Z " fill="#03214E" transform="translate(92,130)"/>
<path d="M0 0 C1.65 0 3.3 0 5 0 C5 0.66 5 1.32 5 2 C6.65 2 8.3 2 10 2 C9.67 3.32 9.34 4.64 9 6 C5.063 4.688 2.773 3.081 0 0 Z " fill="#D4D7DF" transform="translate(42,129)"/>
<path d="M0 0 C0.33 0.66 0.66 1.32 1 2 C1.66 2 2.32 2 3 2 C3 2.99 3 3.98 3 5 C4.65 5.33 6.3 5.66 8 6 C7.34 6.66 6.68 7.32 6 8 C4.68 8 3.36 8 2 8 C0.235 4.912 0 3.767 0 0 Z " fill="#0F6FD6" transform="translate(57,122)"/>
<path d="M0 0 C1.32 0.33 2.64 0.66 4 1 C3.625 3.937 3.625 3.937 3 7 C0.291 8.354 -2.009 8.065 -5 8 C-4.68 7.897 -4.68 7.897 -3.062 7.375 C-1 6 -1 6 -0.25 2.875 C-0.168 1.926 -0.085 0.978 0 0 Z " fill="#042E63" transform="translate(84,88)"/>
<path d="M0 0 C0.66 0 1.32 0 2 0 C2 2.97 2 5.94 2 9 C1.01 9 0.02 9 -1 9 C-1.098 2.848 -1.098 2.848 -1 1 C-0.67 0.67 -0.34 0.34 0 0 Z " fill="#05204B" transform="translate(64,42)"/>
<path d="M0 0 C1.354 2.707 1.759 4.983 2 8 C0.562 10.375 0.562 10.375 -1 12 C-2.114 9.771 -2.165 8.469 -2.188 6 C-2.202 5.299 -2.216 4.598 -2.23 3.875 C-2 2 -2 2 0 0 Z " fill="#D7A432" transform="translate(172,9)"/>
<path d="M0 0 C0.66 0 1.32 0 2 0 C2 0.99 2 1.98 2 3 C3.65 2.67 5.3 2.34 7 2 C7 2.99 7 3.98 7 5 C7.99 4.67 8.98 4.34 10 4 C10 4.66 10 5.32 10 6 C5.435 5.457 2.027 4.205 -2 2 C-1.34 1.34 -0.68 0.68 0 0 Z " fill="#B6BFCF" transform="translate(53,134)"/>
<path d="M0 0 C1.804 2.759 2.013 3.89 1.625 7.25 C1.419 8.157 1.212 9.065 1 10 C0.01 9.67 -0.98 9.34 -2 9 C-2 6.36 -2 3.72 -2 1 C-1.34 0.67 -0.68 0.34 0 0 Z " fill="#E3F0FA" transform="translate(55,116)"/>
<path d="M0 0 C-0.75 6.625 -0.75 6.625 -3 10 C-4 9 -4 9 -4.25 5.562 C-4.167 4.387 -4.085 3.211 -4 2 C-1 0 -1 0 0 0 Z " fill="#DAEAF9" transform="translate(134,120)"/>
<path d="M0 0 C0.33 0 0.66 0 1 0 C1.082 4.161 0.982 7.947 0 12 C-2.503 9.062 -3.469 6.821 -4 3 C-3.67 3.66 -3.34 4.32 -3 5 C-2.34 5 -1.68 5 -1 5 C-0.67 3.35 -0.34 1.7 0 0 Z " fill="#E3EBF2" transform="translate(132,36)"/>
<path d="M0 0 C0.763 0.619 1.526 1.238 2.312 1.875 C5 4 5 4 8 6 C5.69 6.66 3.38 7.32 1 8 C0.67 5.36 0.34 2.72 0 0 Z " fill="#36B959" transform="translate(162,153)"/>
<path d="M0 0 C0.99 0.33 1.98 0.66 3 1 C1.607 4.367 0.021 5.986 -3 8 C-2.744 5.657 -2.407 3.322 -2 1 C-1.34 0.67 -0.68 0.34 0 0 Z " fill="#E5F6EB" transform="translate(175,148)"/>
<path d="M0 0 C0.33 0.66 0.66 1.32 1 2 C0.062 4.125 0.062 4.125 -1 6 C-1.99 6 -2.98 6 -4 6 C-3.67 6.99 -3.34 7.98 -3 9 C-4.32 9 -5.64 9 -7 9 C-5.445 5.183 -2.964 2.808 0 0 Z " fill="#CBD1DC" transform="translate(49,26)"/>
<path d="M0 0 C1.32 0 2.64 0 4 0 C3.67 1.65 3.34 3.3 3 5 C1.68 5 0.36 5 -1 5 C-0.67 3.35 -0.34 1.7 0 0 Z " fill="#F9F4E7" transform="translate(173,9)"/>
<path d="M0 0 C0.33 0.66 0.66 1.32 1 2 C3.285 2.633 3.285 2.633 6.062 3.125 C6.982 3.293 7.901 3.46 8.848 3.633 C9.558 3.754 10.268 3.875 11 4 C11 4.33 11 4.66 11 5 C4.79 5.333 0.717 4.45 -5 2 C-2 0 -2 0 0 0 Z " fill="#259D49" transform="translate(166,166)"/>
<path d="M0 0 C0.33 0 0.66 0 1 0 C1.25 2.75 1.25 2.75 1 6 C-1 8.375 -1 8.375 -3 10 C-3 9.34 -3 8.68 -3 8 C-3.66 8 -4.32 8 -5 8 C-5 7.34 -5 6.68 -5 6 C-4.01 5.67 -3.02 5.34 -2 5 C-0.812 2.438 -0.812 2.438 0 0 Z " fill="#263556" transform="translate(114,121)"/>
<path d="M0 0 C2.278 2.278 3.052 3.938 4 7 C3.625 9.312 3.625 9.312 3 11 C2.67 9.35 2.34 7.7 2 6 C0.68 5.67 -0.64 5.34 -2 5 C-1.34 3.35 -0.68 1.7 0 0 Z " fill="#C8CED8" transform="translate(164,46)"/>
<path d="M0 0 C2.938 0.812 2.938 0.812 4.938 3.812 C3.947 4.143 2.957 4.473 1.938 4.812 C1.938 4.152 1.938 3.492 1.938 2.812 C-0.703 2.482 -3.343 2.152 -6.062 1.812 C-3.062 -0.188 -3.062 -0.188 0 0 Z " fill="#BF8517" transform="translate(22.0625,6.1875)"/>
<path d="M0 0 C1.65 0 3.3 0 5 0 C5 1.32 5 2.64 5 4 C3.35 4.66 1.7 5.32 0 6 C0 4.02 0 2.04 0 0 Z " fill="#F9FAFB" transform="translate(143,112)"/>
<path d="M0 0 C0.33 0.99 0.66 1.98 1 3 C-3.62 2.34 -8.24 1.68 -13 1 C-13 0.67 -13 0.34 -13 0 C-4.571 -1.286 -4.571 -1.286 0 0 Z " fill="#0B3D6F" transform="translate(78,76)"/>
<path d="M0 0 C0.99 0 1.98 0 3 0 C3.369 4.554 3.369 4.554 1.5 6.812 C1.005 7.204 0.51 7.596 0 8 C-0.66 7.67 -1.32 7.34 -2 7 C-1.34 4.69 -0.68 2.38 0 0 Z " fill="#D9EBF9" transform="translate(125,20)"/>
<path d="M0 0 C0.33 0 0.66 0 1 0 C1.49 7.347 1.49 7.347 -0.875 10.5 C-3 12 -3 12 -5 12 C-4.34 10.35 -3.68 8.7 -3 7 C-2.01 7 -1.02 7 0 7 C0 4.69 0 2.38 0 0 Z " fill="#C76812" transform="translate(28,12)"/>
<path d="M0 0 C1.65 0 3.3 0 5 0 C5.33 0.66 5.66 1.32 6 2 C6.99 2.33 7.98 2.66 9 3 C8.67 3.99 8.34 4.98 8 6 C6 6 4 6 2 6 C2.66 4.35 3.32 2.7 4 1 C2.68 0.67 1.36 0.34 0 0 Z " fill="#F7B726" transform="translate(173,8)"/>
<path d="M0 0 C0.99 0.99 1.98 1.98 3 3 C2.34 3.66 1.68 4.32 1 5 C1.375 7.625 1.375 7.625 2 10 C1.01 10 0.02 10 -1 10 C-2.231 4.585 -2.231 4.585 -1.062 1.625 C-0.887 1.357 -0.887 1.357 0 0 Z " fill="#3AB95C" transform="translate(155,137)"/>
<path d="M0 0 C0.66 1.32 1.32 2.64 2 4 C1.34 4 0.68 4 0 4 C-0.33 4.495 -0.33 4.495 -2 7 C-2.99 7 -3.98 7 -5 7 C-3.707 4.116 -2.341 2.128 0 0 Z " fill="#E0F6E5" transform="translate(178,138)"/>
<path d="M0 0 C0.625 1.812 0.625 1.812 1 4 C0.67 4.495 0.67 4.495 -1 7 C-1.66 7 -2.32 7 -3 7 C-3.33 5.68 -3.66 4.36 -4 3 C-3.34 3 -2.68 3 -2 3 C-2 2.34 -2 1.68 -2 1 C-1.34 0.67 -0.68 0.34 0 0 Z " fill="#0F7C35" transform="translate(148,128)"/>
<path d="M0 0 C1.32 0 2.64 0 4 0 C4 0.66 4 1.32 4 2 C3.01 2 2.02 2 1 2 C1.206 2.784 1.412 3.567 1.625 4.375 C1.687 4.808 1.687 4.808 2 7 C1.34 7.66 0.68 8.32 0 9 C-0.879 2.848 -0.879 2.848 -1 1 C-0.67 0.67 -0.34 0.34 0 0 Z " fill="#192E57" transform="translate(84,120)"/>
<path d="M0 0 C0.33 0.99 0.66 1.98 1 3 C-0.65 4.32 -2.3 5.64 -4 7 C-5 4 -5 4 -5 2 C-3.35 1.34 -1.7 0.68 0 0 Z " fill="#0E1F3A" transform="translate(153,103)"/>
<path d="M0 0 C3.938 3.767 3.938 3.767 4.098 6.945 C4.065 8.964 4.033 10.982 4 13 C3.67 13 3.34 13 3 13 C2.938 12.536 2.938 12.536 2.625 10.188 C2 7 2 7 0 4 C0 2.68 0 1.36 0 0 Z " fill="#2895DC" transform="translate(139,81)"/>
<path d="M0 0 C1.134 0.021 2.269 0.041 3.438 0.062 C3.438 0.722 3.438 1.383 3.438 2.062 C1.127 2.392 -1.183 2.722 -3.562 3.062 C-3.892 4.053 -4.223 5.043 -4.562 6.062 C-4.605 4.396 -4.603 2.729 -4.562 1.062 C-3.562 0.062 -3.562 0.062 0 0 Z " fill="#0282E0" transform="translate(21.5625,57.9375)"/>
<path d="M0 0 C0 2.97 0 5.94 0 9 C-0.99 8.67 -1.98 8.34 -3 8 C-3 5.667 -3 3.333 -3 1 C-1 0 -1 0 0 0 Z " fill="#F49408" transform="translate(186,10)"/>
<path d="M0 0 C1.98 0.66 3.96 1.32 6 2 C6 2.66 6 3.32 6 4 C3.69 3.67 1.38 3.34 -1 3 C-0.67 2.01 -0.34 1.02 0 0 Z " fill="#002D67" transform="translate(94,127)"/>
<path d="M0 0 C-0.33 0.165 -0.33 0.165 -2 1 C-2.33 1.99 -2.66 2.98 -3 4 C-4.98 3.34 -6.96 2.68 -9 2 C-5.946 -1.054 -3.953 -1.227 0 0 Z " fill="#29A54B" transform="translate(170,116)"/>
<path d="M0 0 C2.31 0 4.62 0 7 0 C6.01 0.66 5.02 1.32 4 2 C3.312 4.125 3.312 4.125 3 6 C2.34 6 1.68 6 1 6 C0.67 4.02 0.34 2.04 0 0 Z " fill="#0D69CD" transform="translate(136,111)"/>
<path d="M0 0 C1.875 0.312 1.875 0.312 4 1 C4.66 1.99 5.32 2.98 6 4 C3.36 4 0.72 4 -2 4 C-1.34 2.68 -0.68 1.36 0 0 Z " fill="#E6ECF3" transform="translate(147,26)"/>
<path d="M0 0 C0.825 0.33 0.825 0.33 5 2 C3.75 3.562 3.75 3.562 2 5 C-0.188 4.688 -0.188 4.688 -2 4 C-1.34 2.68 -0.68 1.36 0 0 Z " fill="#C4CFD8" transform="translate(136,135)"/>
<path d="M0 0 C0.66 0.33 0.66 0.33 4 2 C3.398 4.02 2.727 6.021 2 8 C1.67 8.165 1.67 8.165 0 9 C0 7.35 0 5.7 0 4 C0.66 4 1.32 4 2 4 C2 3.34 2 2.68 2 2 C1.34 2 0.68 2 0 2 C0 1.34 0 0.68 0 0 Z " fill="#EFF6FB" transform="translate(126,130)"/>
<path d="M0 0 C2.938 0.375 2.938 0.375 6 1 C6.33 1.66 6.66 2.32 7 3 C6.01 3 5.02 3 4 3 C3.34 3.66 2.68 4.32 2 5 C1.34 4.34 0.68 3.68 0 3 C0 2.01 0 1.02 0 0 Z " fill="#081C3F" transform="translate(85,127)"/>
<path d="M0 0 C1.32 0 2.64 0 4 0 C3.67 1.65 3.34 3.3 3 5 C2.01 5 1.02 5 0 5 C0 3.35 0 1.7 0 0 Z " fill="#002351" transform="translate(103,126)"/>
<path d="M0 0 C0.66 0.99 1.32 1.98 2 3 C-1.634 5.326 -4.771 5.163 -9 5 C-8.443 4.732 -7.886 4.464 -7.312 4.188 C-4.803 2.899 -2.407 1.471 0 0 Z " fill="#D5DCE3" transform="translate(152,107)"/>
<path d="M0 0 C0.66 0 1.32 0 2 0 C2.688 1.812 2.688 1.812 3 4 C1.562 5.75 1.562 5.75 0 7 C-1 6 -1 6 -1.125 3.5 C-1 1 -1 1 0 0 Z " fill="#D46309" transform="translate(187,94)"/>
<path d="M0 0 C0.33 0 0.66 0 1 0 C1 2.97 1 5.94 1 9 C0.67 8.34 0.34 7.68 0 7 C-0.99 7.33 -1.98 7.66 -3 8 C-1.125 2.25 -1.125 2.25 0 0 Z " fill="#EF7406" transform="translate(189,87)"/>
<path d="M0 0 C3 3.75 3 3.75 3 6 C2.34 6 1.68 6 1 6 C1 6.99 1 7.98 1 9 C0.34 9 -0.32 9 -1 9 C-1.125 2.25 -1.125 2.25 0 0 Z " fill="#DFC154" transform="translate(9,66)"/>
<path d="M0 0 C1.523 2.937 2.801 5.917 4 9 C3.34 9.66 2.68 10.32 2 11 C-0.679 6.981 -0.156 4.758 0 0 Z " fill="#E4F3FB" transform="translate(75,25)"/>
<path d="M0 0 C2 0 2 0 3.625 1.5 C4.079 1.995 4.532 2.49 5 3 C4.67 3.99 4.34 4.98 4 6 C3.67 6.165 3.67 6.165 2 7 C0.539 4.353 0 3.106 0 0 Z " fill="#E0F0FC" transform="translate(66,128)"/>
<path d="M0 0 C1.65 0 3.3 0 5 0 C4.34 1.65 3.68 3.3 3 5 C2.34 5 1.68 5 1 5 C0.67 3.35 0.34 1.7 0 0 Z " fill="#407E5F" transform="translate(146,120)"/>
<path d="M0 0 C0.66 1.32 1.32 2.64 2 4 C1.01 5.32 0.02 6.64 -1 8 C-1.33 6.02 -1.66 4.04 -2 2 C-1.34 2 -0.68 2 0 2 C0 1.34 0 0.68 0 0 Z " fill="#E6ECEA" transform="translate(145,121)"/>
<path d="M0 0 C0.33 0 0.66 0 1 0 C1 1.65 1 3.3 1 5 C1.99 5.165 1.99 5.165 7 6 C6.67 6.66 6.34 7.32 6 8 C1.125 7.125 1.125 7.125 0 6 C-0.041 4 -0.043 2 0 0 Z " fill="#1D91D6" transform="translate(55,87)"/>
<path d="M0 0 C0 0.33 0 0.66 0 1 C-1.65 1.33 -3.3 1.66 -5 2 C-5 2.33 -5 2.66 -5 3 C-6.98 3 -8.96 3 -11 3 C-8.218 -1.174 -4.534 -0.223 0 0 Z " fill="#238ACB" transform="translate(132,76)"/>
<path d="M0 0 C2 2 2 2 2.125 5.125 C2.084 6.074 2.042 7.022 2 8 C0.35 6.35 -1.3 4.7 -3 3 C-2.01 2.67 -1.02 2.34 0 2 C0 1.34 0 0.68 0 0 Z " fill="#DE980C" transform="translate(188,66)"/>
<path d="M0 0 C0.99 0.33 1.98 0.66 3 1 C3.688 3.062 3.688 3.062 4 5 C2.68 5.33 1.36 5.66 0 6 C0 4.02 0 2.04 0 0 Z " fill="#EFE190" transform="translate(182,60)"/>
<path d="M0 0 C0.66 0 1.32 0 2 0 C2.33 0.99 2.66 1.98 3 3 C1.68 4.32 0.36 5.64 -1 7 C-1.625 5.125 -1.625 5.125 -2 3 C-1.34 2.34 -0.68 1.68 0 1 C0 0.67 0 0.34 0 0 Z " fill="#1674D6" transform="translate(117,31)"/>
<path d="M0 0 C2.875 -0.188 2.875 -0.188 6 0 C6.66 0.99 7.32 1.98 8 3 C5.36 3 2.72 3 0 3 C0 2.01 0 1.02 0 0 Z " fill="#E9EBF0" transform="translate(81,131)"/>
<path d="M0 0 C0.66 0 1.32 0 2 0 C1.602 2.886 1.21 3.822 -1.062 5.75 C-1.702 6.162 -2.341 6.575 -3 7 C-2.25 2.25 -2.25 2.25 0 0 Z " fill="#3BBF5A" transform="translate(184,128)"/>
<path d="M0 0 C2.375 0.25 2.375 0.25 5 1 C6.312 3.062 6.312 3.062 7 5 C6.01 5 5.02 5 4 5 C1.812 2.5 1.812 2.5 0 0 Z " fill="#D1D5DD" transform="translate(36,123)"/>
<path d="M0 0 C0 1.65 0 3.3 0 5 C-0.99 4.67 -1.98 4.34 -3 4 C-3.33 4.99 -3.66 5.98 -4 7 C-4 5.02 -4 3.04 -4 1 C-1 0 -1 0 0 0 Z " fill="#EE7303" transform="translate(186,95)"/>
<path d="M0 0 C1.32 0 2.64 0 4 0 C4.33 1.32 4.66 2.64 5 4 C3.35 4 1.7 4 0 4 C-0.33 3.34 -0.66 2.68 -1 2 C-0.67 1.34 -0.34 0.68 0 0 Z " fill="#2FA8EE" transform="translate(137,91)"/>
<path d="M0 0 C2.062 1.75 2.062 1.75 4 4 C3.75 6.25 3.75 6.25 3 8 C0.938 6.25 0.938 6.25 -1 4 C-0.75 1.75 -0.75 1.75 0 0 Z " fill="#0A3D74" transform="translate(132,85)"/>
<path d="M0 0 C1.938 0.75 1.938 0.75 4 2 C4.875 4 4.875 4 5 6 C4.34 6.66 3.68 7.32 3 8 C0 2.25 0 2.25 0 0 Z " fill="#1D90F2" transform="translate(53,27)"/>
<path d="M0 0 C1.32 0.33 2.64 0.66 4 1 C4 1.99 4 2.98 4 4 C3.34 4 2.68 4 2 4 C1.67 4.66 1.34 5.32 1 6 C0.67 4.02 0.34 2.04 0 0 Z " fill="#0268D3" transform="translate(122,13)"/>
</svg>
