<svg xmlns="http://www.w3.org/2000/svg" viewBox="0 0 96 96" role="img" aria-hidden="true">

<g fill="none" stroke="#F7FAFF" stroke-width="5" stroke-linecap="round" stroke-linejoin="round">
  <rect x="17" y="23" width="50" height="47" rx="6"/>
  <path d="M17 37h50M28 17v12M56 17v12"/>
</g>
<g fill="#42A5FF">
  <rect x="26" y="44" width="7" height="7" rx="1"/><rect x="39" y="44" width="7" height="7" rx="1"/>
  <rect x="26" y="56" width="7" height="7" rx="1"/><rect x="39" y="56" width="7" height="7" rx="1"/>
</g>
<path d="M63 51c4-4 9-5 13-2l-6 6 5 5 6-6c3 4 2 9-2 13-4 4-9 5-13 2L51 78l-7-7 15-15c-2-2-1-4 4-5Z" fill="none" stroke="#FFA726" stroke-width="5" stroke-linecap="round" stroke-linejoin="round"/>
</svg>
