<svg xmlns="http://www.w3.org/2000/svg" viewBox="0 0 96 96" role="img" aria-hidden="true">

<g fill="none" stroke="#082B58" stroke-width="5" stroke-linecap="round" stroke-linejoin="round">
  <circle cx="39" cy="39" r="12"/>
  <path d="M17 76c1-14 10-22 22-22s21 8 22 22"/>
  <path d="M25 32c1-8 7-12 14-12s13 4 14 12"/>
  <path d="M24 31h30"/>
</g>
<path d="M24 31c1-8 7-12 15-12s14 4 15 12" fill="none" stroke="#FF9818" stroke-width="5" stroke-linecap="round"/>
<g fill="none" stroke="#1976D2" stroke-width="4" stroke-linecap="round" stroke-linejoin="round">
  <circle cx="68" cy="46" r="8"/>
  <path d="M54 76c1-9 6-15 14-15s13 6 14 15M62 39c1-6 5-9 10-9s9 3 10 9"/>
  <path d="M61 38h22"/>
</g>
</svg>
